<?xml version="1.0" encoding="utf-8"?>
<!-- Generator: Adobe Illustrator 16.0.0, SVG Export Plug-In . SVG Version: 6.00 Build 0)  -->
<!DOCTYPE svg PUBLIC "-//W3C//DTD SVG 1.1//EN" "http://www.w3.org/Graphics/SVG/1.1/DTD/svg11.dtd">
<svg version="1.1" id="Layer_1" xmlns="http://www.w3.org/2000/svg" xmlns:xlink="http://www.w3.org/1999/xlink" x="0px" y="0px"
	 width="26px" height="17px" viewBox="0 0 26 17" enable-background="new 0 0 26 17" xml:space="preserve">
<path fill="#FFFFFF" d="M25.242,9.1H0.766c-0.276,0-0.5-0.224-0.5-0.5s0.224-0.5,0.5-0.5h24.477c0.276,0,0.5,0.224,0.5,0.5
	S25.519,9.1,25.242,9.1z"/>
<path fill="#FFFFFF" d="M25.242,9.1c-0.128,0-0.256-0.049-0.354-0.146l-7.5-7.5c-0.195-0.195-0.195-0.512,0-0.707
	s0.512-0.195,0.707,0l7.5,7.5c0.195,0.195,0.195,0.512,0,0.707C25.498,9.051,25.37,9.1,25.242,9.1z"/>
<path fill="#FFFFFF" d="M17.742,16.6c-0.128,0-0.256-0.049-0.354-0.146c-0.195-0.195-0.195-0.512,0-0.707l7.5-7.5
	c0.195-0.195,0.512-0.195,0.707,0s0.195,0.512,0,0.707l-7.5,7.5C17.998,16.551,17.87,16.6,17.742,16.6z"/>
</svg>
