<?xml version="1.0" encoding="utf-8"?>
<!-- Generator: Adobe Illustrator 16.0.0, SVG Export Plug-In . SVG Version: 6.00 Build 0)  -->
<!DOCTYPE svg PUBLIC "-//W3C//DTD SVG 1.1//EN" "http://www.w3.org/Graphics/SVG/1.1/DTD/svg11.dtd">
<svg version="1.1" id="Layer_1" xmlns="http://www.w3.org/2000/svg" xmlns:xlink="http://www.w3.org/1999/xlink" x="0px" y="0px"
	 width="172px" height="35px" viewBox="0 0 172 35" enable-background="new 0 0 172 35" xml:space="preserve">
<g opacity="0.17">
	<path d="M6.556,20.841c0.294,2.87,2.097,4.452,5.004,4.452c1.656,0,4.453-0.479,5.777-0.957c0.111,0.994-0.331,2.649-0.92,3.569
		c-1.361,0.736-3.643,1.398-6.255,1.398C4.311,29.304,1,25.366,1,20.068c0-5.814,3.716-9.972,9.457-9.972
		c5.004,0,7.064,3.385,7.064,8.684c0,0.625-0.073,1.398-0.147,2.061H6.556z M12.333,17.455c0.221-1.913-0.405-4.158-2.576-4.158
		c-1.876,0-3.201,1.729-3.385,4.158H12.333z"/>
	<path d="M31.651,14.512h-2.576c0.037-1.03,0.441-2.539,0.883-3.385c0.957-0.442,2.612-0.736,4.194-0.736
		c0.957,0,2.245,0.147,2.87,0.405V22.57c0,0.92,0.074,1.876,0.294,2.723h2.649c0.037,0.184,0.037,0.405,0.037,0.625
		c0,0.663-0.294,1.877-0.625,2.466c-1.361,0.479-4.379,0.736-6.329,0.736c-0.515-0.92-0.883-2.024-1.066-3.202h-0.332
		c-0.994,1.877-2.686,3.386-5.63,3.386c-3.054,0-5.813-1.067-5.813-6.845c0-2.317,0.073-5.408,0.221-7.947h-2.723
		c0.037-1.03,0.441-2.612,0.883-3.385c0.957-0.442,2.612-0.736,4.195-0.736c0.957,0,2.244,0.147,2.87,0.405V21.54
		c0,2.392,0.662,3.643,2.907,3.643c1.141,0,2.281-0.772,3.091-1.729V14.512z"/>
	<path d="M47.915,14.254c0.405-1.95,2.171-4.158,4.747-4.158c0.662,0,1.435,0.147,1.876,0.368c0.479,0.663,0.736,1.95,0.736,3.202
		c0,0.625-0.074,1.251-0.221,1.729c-0.773-0.441-2.098-0.625-2.797-0.625c-1.619,0-3.127,0.883-4.084,2.428v7.837
		c1.104,0.11,2.796,0.441,3.606,0.772C52,26.396,52.11,27.942,52,28.679H40.114c0.074-0.884,0.331-2.098,0.589-2.687
		c0.515-0.405,1.435-0.772,2.134-1.03v-10.45h-2.576c0-1.03,0.331-2.576,0.81-3.385c0.883-0.442,2.318-0.736,3.753-0.736
		c0.883,0,1.987,0.147,2.539,0.404v3.459H47.915z"/>
	<path d="M65.725,26.654c-1.03,1.656-2.686,2.649-5.409,2.649c-2.687,0-5.299-1.803-5.299-5.483c0-4.084,3.385-6.107,7.506-6.107
		c1.067,0,2.134,0.221,3.018,0.589V16.94c0-1.914-1.104-2.723-3.238-2.723c-1.693,0-4.6,0.81-5.961,1.545
		c-0.074-0.294-0.147-0.957-0.147-1.288c0-1.251,0.331-2.649,0.736-3.422c1.362-0.515,4.379-0.957,6.624-0.957
		c4.636,0,7.175,1.766,7.175,6.439v6.183c0,1.14,0.221,2.171,0.516,2.723c0.699,0,1.766-0.147,2.392-0.295
		c0.037,0.258,0.037,0.441,0.037,0.589c0,0.81-0.258,1.729-0.625,2.466c-0.993,0.588-3.238,1.104-5.225,1.104
		c-0.81-0.405-1.472-1.472-1.767-2.649H65.725z M65.651,20.841c-0.662-0.147-1.545-0.221-2.023-0.221
		c-2.134,0-3.275,1.03-3.275,2.612c0,1.656,1.067,2.392,2.281,2.392c1.435,0,2.429-0.662,3.017-1.324V20.841z"/>
	<path d="M83.46,13.555c-0.404-0.221-0.993-0.404-1.619-0.404c-1.288,0-1.95,0.552-1.95,1.619c0,3.606,8.646,1.729,8.646,8.574
		c0,4.415-3.532,5.961-7.617,5.961c-2.465,0-4.71-0.368-6.623-1.398c-0.11-0.552-0.184-1.251-0.184-1.987
		c0-1.177,0.147-2.392,0.368-3.127c1.545,0,2.944,0.146,4.231,0.589v2.023c0.663,0.368,1.656,0.626,2.465,0.626
		c1.361,0,2.134-0.516,2.134-1.693c0-3.348-8.757-1.509-8.757-8.721c0-3.275,2.686-5.52,7.249-5.52c2.024,0,4.194,0.368,6.182,1.251
		c0.037,0.368,0.074,0.846,0.074,1.288c0,1.178-0.147,2.502-0.405,3.385c-1.545,0-3.201-0.368-4.195-0.809V13.555z"/>
	<path d="M89.459,14.512c0.036-1.03,0.441-2.613,0.883-3.385c0.956-0.441,2.612-0.736,4.194-0.736c0.957,0,2.281,0.147,2.907,0.405
		v14.35c0.772,0.11,1.987,0.368,2.612,0.662c0.11,0.405,0.185,1.288,0.185,2.062c0,0.294,0,0.552-0.037,0.81H89.385
		c0.074-0.884,0.331-2.098,0.589-2.687c0.516-0.405,1.398-0.772,2.134-1.03v-10.45H89.459z M98.068,3.693
		c0,2.171-1.324,3.385-3.2,3.385c-2.135,0-3.275-1.177-3.275-3.385c0-1.913,1.361-3.164,3.275-3.164
		C96.744,0.529,98.068,1.67,98.068,3.693"/>
	<path d="M111.426,26.654c-1.03,1.656-2.687,2.649-5.409,2.649c-2.686,0-5.299-1.803-5.299-5.483c0-4.084,3.386-6.107,7.507-6.107
		c1.067,0,2.134,0.221,3.018,0.589V16.94c0-1.914-1.104-2.723-3.238-2.723c-1.692,0-4.6,0.81-5.961,1.545
		c-0.074-0.294-0.147-0.957-0.147-1.288c0-1.251,0.331-2.649,0.736-3.422c1.361-0.515,4.379-0.957,6.623-0.957
		c4.637,0,7.176,1.766,7.176,6.439v6.183c0,1.14,0.22,2.171,0.515,2.723c0.699,0,1.766-0.147,2.392-0.295
		c0.037,0.258,0.037,0.441,0.037,0.589c0,0.81-0.258,1.729-0.626,2.466c-0.993,0.588-3.237,1.104-5.225,1.104
		c-0.81-0.405-1.472-1.472-1.767-2.649H111.426z M111.353,20.841c-0.663-0.147-1.546-0.221-2.024-0.221
		c-2.134,0-3.274,1.03-3.274,2.612c0,1.656,1.067,2.392,2.281,2.392c1.435,0,2.429-0.662,3.018-1.324V20.841z"/>
	<path d="M127.396,25.146c0.699,0.11,1.84,0.368,2.392,0.662c0.147,0.589,0.258,2.135,0.147,2.87h-10.598
		c0.074-0.883,0.331-2.097,0.589-2.686c0.515-0.405,1.435-0.772,2.135-1.03v-10.45h-2.649c0.036-1.03,0.441-2.613,0.883-3.385
		c0.883-0.442,2.318-0.736,3.753-0.736c0.883,0,1.987,0.147,2.539,0.405v2.907h0.552c0.994-1.987,2.834-3.606,5.998-3.606
		c3.091,0,6.035,0.92,6.035,6.733c0,2.649-0.111,5.741-0.295,8.28c0.772,0.11,1.95,0.404,2.612,0.698
		c0.11,0.442,0.185,1.288,0.185,2.024c0,0.294,0,0.552-0.037,0.846h-10.082c0.073-0.883,0.257-2.097,0.478-2.686
		c0.405-0.405,1.178-0.772,1.73-1.03v-7.139c0-2.134-0.736-3.643-2.87-3.643c-1.436,0-2.687,0.92-3.496,1.987V25.146z"/>
	<path d="M146.383,20.841c0.294,2.87,2.098,4.452,5.004,4.452c1.656,0,4.453-0.479,5.777-0.957c0.11,0.994-0.331,2.649-0.92,3.569
		c-1.361,0.736-3.643,1.398-6.256,1.398c-5.85,0-9.161-3.938-9.161-9.235c0-5.814,3.716-9.972,9.456-9.972
		c5.005,0,7.065,3.385,7.065,8.684c0,0.625-0.074,1.398-0.147,2.061H146.383z M152.16,17.455c0.221-1.913-0.405-4.158-2.576-4.158
		c-1.876,0-3.201,1.729-3.385,4.158H152.16z"/>
	<path d="M160.771,5.975c0.956-0.516,3.054-0.883,4.452-0.883v5.63h5.114c0.185,0.736,0.331,2.576,0.185,3.643h-5.299v8.132
		c0,2.024,0.847,2.649,2.354,2.649c0.92,0,2.429-0.221,3.386-0.479C171,24.852,171,25.035,171,25.109
		c0,0.809-0.368,2.207-0.884,3.017c-1.398,0.772-3.643,1.178-5.004,1.178c-3.532,0-5.299-1.729-5.299-6.035
		c0-2.392,0.11-5.998,0.368-8.904h-2.76c0-0.883,0.295-2.612,0.662-3.385c0.553-0.331,1.436-0.662,2.024-0.809L160.771,5.975z"/>
	<path fill="#1090FF" d="M17.271,34.471H5.044c-1.355,0-3.123-1.099-3.123-2.453v-2.456h13.947c0.542,0,1.403,0.438,1.403,0.98
		V34.471z"/>
</g>
</svg>
