<?xml version="1.0" encoding="utf-8"?>
<!-- Generator: Adobe Illustrator 16.0.0, SVG Export Plug-In . SVG Version: 6.00 Build 0)  -->
<!DOCTYPE svg PUBLIC "-//W3C//DTD SVG 1.1//EN" "http://www.w3.org/Graphics/SVG/1.1/DTD/svg11.dtd">
<svg version="1.1" id="Layer_1" xmlns="http://www.w3.org/2000/svg" xmlns:xlink="http://www.w3.org/1999/xlink" x="0px" y="0px"
	 width="20px" height="20px" viewBox="0 0 20 20" enable-background="new 0 0 20 20" xml:space="preserve">
<g>
	<path fill="#F7CE13" d="M14.811,0.004L12.217,0C9.303,0,7.42,1.932,7.42,4.922v2.27H4.812c-0.225,0-0.408,0.183-0.408,0.408v3.288
		c0,0.226,0.183,0.407,0.408,0.407H7.42v8.297C7.42,19.818,7.603,20,7.828,20h3.402c0.225,0,0.408-0.182,0.408-0.408v-8.297h3.049
		c0.226,0,0.408-0.182,0.408-0.407L15.097,7.6c0-0.108-0.044-0.212-0.12-0.289c-0.076-0.077-0.18-0.12-0.288-0.12h-3.05V5.268
		c0-0.925,0.22-1.394,1.424-1.394l1.748,0c0.225,0,0.408-0.183,0.408-0.408V0.412C15.219,0.187,15.035,0.004,14.811,0.004z"/>
</g>
</svg>
