<?xml version="1.0" encoding="utf-8"?>
<!-- Generator: Adobe Illustrator 16.0.0, SVG Export Plug-In . SVG Version: 6.00 Build 0)  -->
<!DOCTYPE svg PUBLIC "-//W3C//DTD SVG 1.1//EN" "http://www.w3.org/Graphics/SVG/1.1/DTD/svg11.dtd">
<svg version="1.1" id="Layer_1" xmlns="http://www.w3.org/2000/svg" xmlns:xlink="http://www.w3.org/1999/xlink" x="0px" y="0px"
	 width="22px" height="22px" viewBox="0 0 22 22" enable-background="new 0 0 22 22" xml:space="preserve">
<g>
	<path fill="#F7CE13" d="M11,22C4.935,22,0,17.065,0,11C0,4.935,4.935,0,11,0s11,4.935,11,11C22,17.065,17.065,22,11,22z M11,2
		c-4.962,0-9,4.037-9,9c0,4.963,4.038,9,9,9c4.963,0,9-4.037,9-9C20,6.038,15.963,2,11,2z"/>
	<path fill="#F7CE13" d="M21,12H1c-0.552,0-1-0.447-1-1c0-0.552,0.448-1,1-1h20c0.553,0,1,0.448,1,1C22,11.553,21.553,12,21,12z"/>
	<path fill="#F7CE13" d="M11,22L11,22c-0.281,0-0.549-0.118-0.738-0.325C7.596,18.756,6.083,14.973,6,11.021
		c0.083-3.993,1.596-7.776,4.262-10.694c0.379-0.415,1.098-0.415,1.477,0c2.666,2.917,4.18,6.701,4.262,10.653
		c-0.082,3.994-1.596,7.777-4.262,10.695C11.549,21.882,11.281,22,11,22z M11,2.551c-1.878,2.42-2.936,5.387-3,8.47
		c0.064,3.047,1.121,6.01,3,8.429c1.879-2.419,2.936-5.386,3-8.47C13.936,7.933,12.879,4.97,11,2.551z"/>
</g>
</svg>
