<?xml version="1.0" encoding="utf-8"?>
<!-- Generator: Adobe Illustrator 16.0.0, SVG Export Plug-In . SVG Version: 6.00 Build 0)  -->
<!DOCTYPE svg PUBLIC "-//W3C//DTD SVG 1.1//EN" "http://www.w3.org/Graphics/SVG/1.1/DTD/svg11.dtd">
<svg version="1.1" id="Layer_1" xmlns="http://www.w3.org/2000/svg" xmlns:xlink="http://www.w3.org/1999/xlink" x="0px" y="0px"
	 width="20px" height="20px" viewBox="0 0 20 20" enable-background="new 0 0 20 20" xml:space="preserve">
<g>
	<path id="LinkedIn" fill="#4071AF" d="M20,12.162v7.394h-4.287v-6.898c0-1.733-0.619-2.916-2.172-2.916
		c-1.184,0-1.889,0.797-2.199,1.568c-0.113,0.275-0.143,0.659-0.143,1.045v7.201H6.912c0,0,0.058-11.684,0-12.895h4.287v1.828
		c-0.008,0.014-0.02,0.028-0.027,0.042h0.027V8.489c0.57-0.877,1.588-2.131,3.865-2.131C17.885,6.358,20,8.201,20,12.162z
		 M2.426,0.445C0.959,0.445,0,1.407,0,2.672C0,3.91,0.932,4.901,2.37,4.901h0.028c1.496,0,2.426-0.991,2.426-2.229
		C4.795,1.407,3.894,0.445,2.426,0.445z M0.255,19.556h4.286V6.661H0.255V19.556z"/>
</g>
</svg>
