<?xml version="1.0" encoding="utf-8"?>
<!-- Generator: Adobe Illustrator 16.0.0, SVG Export Plug-In . SVG Version: 6.00 Build 0)  -->
<!DOCTYPE svg PUBLIC "-//W3C//DTD SVG 1.1//EN" "http://www.w3.org/Graphics/SVG/1.1/DTD/svg11.dtd">
<svg version="1.1" id="Layer_1" xmlns="http://www.w3.org/2000/svg" xmlns:xlink="http://www.w3.org/1999/xlink" x="0px" y="0px"
	 width="278px" height="78px" viewBox="0 0 278 78" enable-background="new 0 0 278 78" xml:space="preserve">
<polygon fill="#DAB163" points="1.701,4.085 2.883,8.741 2.568,8.741 1.701,5.359 "/>
<polygon fill="#DAB163" points="1.701,6.886 2.166,8.741 1.852,8.741 1.701,8.158 "/>
<polygon fill="#DAB163" points="2.091,2.8 3.603,8.741 3.273,8.741 1.761,2.8 "/>
<polygon fill="#DAB163" points="2.794,2.8 3.542,5.718 3.542,6.99 2.48,2.8 "/>
<polygon fill="#DAB163" points="3.542,4.177 3.198,2.8 3.513,2.8 3.542,2.919 "/>
<polygon fill="#DAB163" points="4.32,8.741 3.991,8.741 3.692,7.559 4.006,7.559 "/>
<polygon fill="#EB4949" points="23.165,1.019 23.165,6.959 16.625,6.959 16.625,22.42 10.682,22.42 10.682,6.959 4.141,6.959 
	4.141,1.019 "/>
<polygon fill="#DAB163" points="4.396,7.559 4.725,7.559 5.024,8.741 4.71,8.741 "/>
<polygon fill="#DAB163" points="5.113,7.559 5.443,7.559 5.743,8.741 5.414,8.741 "/>
<polygon fill="#DAB163" points="6.146,7.559 6.46,8.741 6.132,8.741 5.833,7.559 "/>
<polygon fill="#DAB163" points="6.865,7.559 7.165,8.741 6.849,8.741 6.537,7.559 "/>
<polygon fill="#DAB163" points="7.883,8.741 7.554,8.741 7.254,7.559 7.584,7.559 "/>
<polygon fill="#DAB163" points="10.084,15.866 7.974,7.559 8.288,7.559 10.084,14.61 "/>
<polygon fill="#DAB163" points="10.084,18.665 8.244,11.421 8.244,10.163 10.084,17.407 "/>
<polygon fill="#DAB163" points="8.244,12.962 10.084,20.207 10.084,21.479 8.244,14.235 "/>
<polygon fill="#DAB163" points="8.244,15.775 10.084,23.004 10.084,23.02 10.382,24.202 10.068,24.202 8.244,17.034 "/>
<polygon fill="#DAB163" points="8.244,18.575 9.679,24.202 9.35,24.202 8.244,19.833 "/>
<polygon fill="#DAB163" points="8.244,21.374 8.961,24.202 8.647,24.202 8.244,22.646 "/>
<path fill="#DAB163" d="M8.244,24.188v0.015V24.188z"/>
<polygon fill="#DAB163" points="9.007,7.559 10.084,11.794 10.084,13.067 8.677,7.559 "/>
<polygon fill="#DAB163" points="9.724,7.559 10.084,8.997 10.084,10.253 9.394,7.559 "/>
<polygon fill="#DAB163" points="10.801,23.02 11.101,24.202 10.788,24.202 10.474,23.02 "/>
<polygon fill="#DAB163" points="11.505,23.02 11.818,24.202 11.491,24.202 11.19,23.02 "/>
<polygon fill="#DAB163" points="12.224,23.02 12.522,24.202 12.208,24.202 11.91,23.02 "/>
<polygon fill="#DAB163" points="12.942,23.02 13.242,24.202 12.926,24.202 12.613,23.02 "/>
<polygon fill="#DAB163" points="13.646,23.02 13.96,24.202 13.631,24.202 13.332,23.02 "/>
<polygon fill="#DAB163" points="14.184,23.02 14.184,23.573 14.051,23.02 "/>
<polygon fill="#DAB163" points="17.867,8.741 17.552,8.741 17.251,7.559 17.566,7.559 "/>
<polygon fill="#DAB163" points="18.585,8.741 18.256,8.741 17.956,7.559 18.286,7.559 "/>
<polygon fill="#DAB163" points="19.303,8.741 18.974,8.741 18.675,7.559 18.989,7.559 "/>
<polygon fill="#DAB163" points="20.007,8.741 19.692,8.741 19.393,7.559 19.708,7.559 "/>
<polygon fill="#DAB163" points="20.726,8.741 20.396,8.741 20.096,7.559 20.426,7.559 "/>
<polygon fill="#DAB163" points="25.17,2.8 26.802,9.221 26.802,10.492 24.961,3.249 24.961,2.8 "/>
<polygon fill="#DAB163" points="24.961,4.789 26.802,12.034 26.802,13.29 24.961,6.046 "/>
<polygon fill="#DAB163" points="24.961,7.59 26.802,14.833 26.802,16.104 24.961,8.861 "/>
<polygon fill="#DAB163" points="24.961,10.403 26.802,17.631 26.802,18.904 24.961,11.66 "/>
<polygon fill="#DAB163" points="24.961,13.203 26.802,20.445 26.802,21.704 24.961,14.459 "/>
<polygon fill="#DAB163" points="24.961,16.001 27.042,24.202 26.728,24.202 24.961,17.272 "/>
<polygon fill="#DAB163" points="24.961,18.799 26.338,24.202 26.008,24.202 24.961,20.072 "/>
<polygon fill="#DAB163" points="24.961,21.613 25.619,24.202 25.305,24.202 24.961,22.87 "/>
<polygon fill="#DAB163" points="25.873,2.8 26.802,6.421 26.802,7.694 25.559,2.8 "/>
<polygon fill="#DAB163" points="26.802,4.88 26.278,2.8 26.592,2.8 26.802,3.623 "/>
<polygon fill="#DAB163" points="27.461,23.02 27.759,24.202 27.446,24.202 27.132,23.02 "/>
<polygon fill="#EB4949" points="47.023,1.019 47.023,22.42 41.081,22.42 41.081,14.685 33.342,14.685 33.342,22.42 27.402,22.42 
	27.402,1.019 33.342,1.019 33.342,8.741 41.081,8.741 41.081,1.019 "/>
<polygon fill="#DAB163" points="28.178,23.02 28.479,24.202 28.149,24.202 27.849,23.02 "/>
<polygon fill="#DAB163" points="28.882,23.02 29.183,24.202 28.869,24.202 28.568,23.02 "/>
<polygon fill="#DAB163" points="29.601,23.02 29.899,24.202 29.586,24.202 29.272,23.02 "/>
<polygon fill="#DAB163" points="30.319,23.02 30.619,24.202 30.29,24.202 29.991,23.02 "/>
<polygon fill="#DAB163" points="30.904,23.02 30.904,23.814 30.708,23.02 "/>
<polygon fill="#DAB163" points="34.36,16.479 34.032,16.479 33.942,16.104 33.942,15.282 34.046,15.282 "/>
<polygon fill="#DAB163" points="34.749,16.479 34.45,15.282 34.765,15.282 35.065,16.479 "/>
<polygon fill="#DAB163" points="35.783,16.479 35.468,16.479 35.154,15.282 35.483,15.282 "/>
<polygon fill="#DAB163" points="36.501,16.479 36.172,16.479 35.873,15.282 36.187,15.282 "/>
<polygon fill="#DAB163" points="36.906,15.282 37.204,16.479 36.89,16.479 36.592,15.282 "/>
<polygon fill="#DAB163" points="37.609,16.479 37.295,15.282 37.624,15.282 37.923,16.479 "/>
<polygon fill="#DAB163" points="38.326,15.282 40.602,24.202 40.287,24.202 38.641,17.737 38.641,16.479 38.313,16.479 
	38.012,15.282 "/>
<polygon fill="#DAB163" points="38.731,2.8 40.093,8.142 39.764,8.142 38.641,3.711 38.641,2.8 "/>
<polygon fill="#DAB163" points="38.641,5.254 39.375,8.142 39.045,8.142 38.641,6.525 "/>
<polygon fill="#DAB163" points="38.641,8.052 38.656,8.142 38.641,8.142 "/>
<polygon fill="#DAB163" points="38.641,19.28 39.883,24.202 39.569,24.202 38.641,20.536 "/>
<polygon fill="#DAB163" points="38.641,22.077 39.18,24.202 38.851,24.202 38.641,23.349 "/>
<polygon fill="#DAB163" points="39.045,15.282 40.483,20.91 40.483,22.167 38.731,15.282 "/>
<polygon fill="#DAB163" points="39.435,2.8 40.483,6.886 40.483,8.142 39.121,2.8 "/>
<polygon fill="#DAB163" points="39.764,15.282 40.483,18.11 40.483,19.368 39.435,15.282 "/>
<polygon fill="#DAB163" points="40.483,5.359 39.825,2.8 40.153,2.8 40.483,4.085 "/>
<polygon fill="#DAB163" points="40.483,16.57 40.153,15.282 40.483,15.282 40.483,15.297 "/>
<polygon fill="#DAB163" points="41.021,23.02 41.321,24.202 40.993,24.202 40.691,23.02 "/>
<polygon fill="#DAB163" points="41.724,23.02 42.024,24.202 41.709,24.202 41.411,23.02 "/>
<polygon fill="#DAB163" points="42.444,23.02 42.743,24.202 42.428,24.202 42.114,23.02 "/>
<polygon fill="#DAB163" points="43.162,23.02 43.461,24.202 43.131,24.202 42.832,23.02 "/>
<polygon fill="#DAB163" points="43.866,23.02 44.164,24.202 43.85,24.202 43.552,23.02 "/>
<polygon fill="#DAB163" points="44.582,23.02 44.582,24.202 44.569,24.202 44.256,23.02 "/>
<polygon fill="#DAB163" points="48.82,3.383 50.66,10.627 50.66,11.9 48.82,4.656 "/>
<polygon fill="#DAB163" points="48.82,6.197 50.66,13.425 50.66,14.698 48.82,7.455 "/>
<polygon fill="#DAB163" points="48.82,8.997 50.66,16.24 50.66,17.497 48.82,10.253 "/>
<polygon fill="#DAB163" points="48.82,11.794 50.66,19.038 50.66,20.31 48.82,13.067 "/>
<polygon fill="#DAB163" points="48.82,14.61 50.66,21.838 50.66,23.02 50.96,23.02 51.259,24.202 50.945,24.202 48.82,15.866 "/>
<polygon fill="#DAB163" points="48.82,17.407 50.556,24.202 50.226,24.202 48.82,18.665 "/>
<polygon fill="#DAB163" points="48.82,20.207 49.837,24.202 49.506,24.202 48.82,21.479 "/>
<polygon fill="#DAB163" points="48.82,23.004 49.119,24.202 48.82,24.202 "/>
<polygon fill="#DAB163" points="49.388,2.8 50.66,7.828 50.66,9.085 49.058,2.8 "/>
<polygon fill="#DAB163" points="50.091,2.8 50.66,5.014 50.66,6.287 49.777,2.8 "/>
<polygon fill="#DAB163" points="50.66,3.487 50.495,2.8 50.66,2.8 "/>
<polygon fill="#EB4949" points="69.683,1.019 69.683,6.959 57.201,6.959 57.201,9.34 65.732,9.34 65.732,14.1 57.201,14.1 
	57.201,16.479 69.683,16.479 69.683,22.42 51.259,22.42 51.259,1.019 "/>
<polygon fill="#DAB163" points="51.677,23.02 51.978,24.202 51.648,24.202 51.349,23.02 "/>
<polygon fill="#DAB163" points="52.381,23.02 52.694,24.202 52.367,24.202 52.067,23.02 "/>
<polygon fill="#DAB163" points="53.1,23.02 53.399,24.202 53.083,24.202 52.786,23.02 "/>
<polygon fill="#DAB163" points="53.819,23.02 54.118,24.202 53.788,24.202 53.489,23.02 "/>
<polygon fill="#DAB163" points="54.522,23.02 54.836,24.202 54.507,24.202 54.208,23.02 "/>
<polygon fill="#DAB163" points="55.241,23.02 55.539,24.202 55.225,24.202 54.926,23.02 "/>
<polygon fill="#DAB163" points="55.958,23.02 56.259,24.202 55.928,24.202 55.629,23.02 "/>
<polygon fill="#DAB163" points="56.661,23.02 56.976,24.202 56.647,24.202 56.348,23.02 "/>
<polygon fill="#DAB163" points="57.381,23.02 57.679,24.202 57.366,24.202 57.066,23.02 "/>
<polygon fill="#DAB163" points="58.099,23.02 58.398,24.202 58.069,24.202 57.77,23.02 "/>
<polygon fill="#DAB163" points="57.798,8.741 57.798,7.828 58.024,8.741 "/>
<polygon fill="#DAB163" points="57.798,14.685 58.116,14.685 58.414,15.88 58.099,15.88 57.798,14.698 "/>
<polygon fill="#DAB163" points="58.116,7.559 58.442,7.559 58.742,8.741 58.429,8.741 "/>
<polygon fill="#DAB163" points="58.802,23.02 59.116,24.202 58.788,24.202 58.488,23.02 "/>
<polygon fill="#DAB163" points="58.501,14.685 58.832,14.685 59.133,15.88 58.818,15.88 "/>
<polygon fill="#DAB163" points="58.832,7.559 59.161,7.559 59.461,8.741 59.133,8.741 "/>
<polygon fill="#DAB163" points="59.522,23.02 59.82,24.202 59.506,24.202 59.207,23.02 "/>
<polygon fill="#DAB163" points="59.221,14.685 59.551,14.685 59.849,15.88 59.522,15.88 "/>
<polygon fill="#DAB163" points="59.551,7.559 59.865,7.559 60.164,8.741 59.849,8.741 "/>
<polygon fill="#DAB163" points="60.239,23.02 60.54,24.202 60.209,24.202 59.909,23.02 "/>
<polygon fill="#DAB163" points="59.94,14.685 60.254,14.685 60.553,15.88 60.239,15.88 "/>
<polygon fill="#DAB163" points="60.254,7.559 60.584,7.559 60.883,8.741 60.569,8.741 "/>
<polygon fill="#DAB163" points="60.943,23.02 61.257,24.202 60.928,24.202 60.628,23.02 "/>
<polygon fill="#DAB163" points="60.643,14.685 60.973,14.685 61.271,15.88 60.959,15.88 "/>
<polygon fill="#DAB163" points="60.973,7.559 61.303,7.559 61.601,8.741 61.271,8.741 "/>
<polygon fill="#DAB163" points="61.661,23.02 61.959,24.202 61.646,24.202 61.346,23.02 "/>
<polygon fill="#DAB163" points="61.362,14.685 61.691,14.685 61.99,15.88 61.661,15.88 "/>
<polygon fill="#DAB163" points="61.691,7.559 62.006,7.559 62.305,8.741 61.99,8.741 "/>
<polygon fill="#DAB163" points="62.379,23.02 62.679,24.202 62.35,24.202 62.051,23.02 "/>
<polygon fill="#DAB163" points="62.08,14.685 62.396,14.685 62.694,15.88 62.379,15.88 "/>
<polygon fill="#DAB163" points="62.396,7.559 62.723,7.559 63.024,8.741 62.71,8.741 "/>
<polygon fill="#DAB163" points="63.083,23.02 63.397,24.202 63.068,24.202 62.77,23.02 "/>
<polygon fill="#DAB163" points="62.783,14.685 63.114,14.685 63.292,15.388 63.292,15.88 63.099,15.88 "/>
<polygon fill="#DAB163" points="63.114,7.559 63.442,7.559 63.74,8.741 63.413,8.741 "/>
<polygon fill="#DAB163" points="63.803,23.02 64.102,24.202 63.787,24.202 63.486,23.02 "/>
<polygon fill="#DAB163" points="63.832,7.559 64.146,7.559 64.445,8.741 64.13,8.741 "/>
<polygon fill="#DAB163" points="64.52,23.02 64.82,24.202 64.49,24.202 64.19,23.02 "/>
<polygon fill="#DAB163" points="64.534,7.559 64.865,7.559 65.164,8.741 64.85,8.741 "/>
<polygon fill="#DAB163" points="65.223,23.02 65.537,24.202 65.208,24.202 64.909,23.02 "/>
<polygon fill="#DAB163" points="65.254,7.559 65.584,7.559 65.882,8.741 65.553,8.741 "/>
<polygon fill="#DAB163" points="65.942,23.02 66.241,24.202 65.928,24.202 65.628,23.02 "/>
<polygon fill="#DAB163" points="65.973,7.559 66.286,7.559 66.585,8.741 66.271,8.741 "/>
<polygon fill="#DAB163" points="66.66,23.02 66.96,24.202 66.631,24.202 66.332,23.02 "/>
<polygon fill="#DAB163" points="66.676,7.559 67.003,7.559 67.245,8.532 67.245,8.741 66.99,8.741 "/>
<polygon fill="#DAB163" points="67.245,23.814 67.05,23.02 67.245,23.02 "/>
<polygon fill="#DAB163" points="79.847,2.826 82.295,12.457 82.295,14.367 79.532,3.5 79.532,2.826 "/>
<polygon fill="#DAB163" points="79.532,5.812 82.295,16.677 82.295,18.564 79.532,7.699 "/>
<polygon fill="#DAB163" points="79.532,10.011 82.295,20.878 82.295,22.786 79.532,11.919 "/>
<polygon fill="#DAB163" points="79.532,14.232 82.295,25.076 82.295,26.984 79.532,16.118 "/>
<polygon fill="#DAB163" points="79.532,18.43 82.295,29.296 82.295,31.182 79.532,20.314 "/>
<polygon fill="#DAB163" points="82.182,34.931 79.532,24.536 79.532,22.628 82.653,34.931 "/>
<polygon fill="#DAB163" points="81.104,34.931 79.532,28.735 79.532,26.826 81.598,34.931 "/>
<polygon fill="#DAB163" points="79.532,31.047 80.52,34.931 80.049,34.931 79.532,32.934 "/>
<polygon fill="#DAB163" points="80.902,2.826 82.295,8.259 82.295,10.167 80.43,2.826 "/>
<polygon fill="#DAB163" points="82.295,5.947 81.508,2.826 81.98,2.826 82.295,4.062 "/>
<polygon fill="#DAB163" points="83.259,34.931 82.789,33.157 83.281,33.157 83.731,34.931 "/>
<polygon fill="#DAB163" points="83.865,33.157 84.36,33.157 84.809,34.931 84.313,34.931 "/>
<polygon fill="#DAB163" points="84.943,33.157 85.414,33.157 85.864,34.931 85.391,34.931 "/>
<polygon fill="#DAB163" points="85.998,33.157 86.492,33.157 86.941,34.931 86.471,34.931 "/>
<polygon fill="#DAB163" points="87.077,33.157 87.57,33.157 88.02,34.931 87.525,34.931 "/>
<polygon fill="#DAB163" points="88.446,34.348 88.154,33.157 88.446,33.157 "/>
<g>
	<path fill="#EB4949" d="M109.235,18.184c1.062-1.856,1.594-3.855,1.594-5.995c0-3.323-1.176-6.16-3.525-8.51
		c-2.349-2.35-5.187-3.524-8.51-3.524H83.19v32.104h8.913v-8.037h3.614l0.494,0.832l1.438,2.425L97.49,27.23l0.584,0.989
		l1.034,1.729l0.853,1.438l0.517,0.875h10.351l-5.793-9.789C106.804,21.393,108.202,19.964,109.235,18.184z M101.085,14.3
		c-0.539,0.599-1.211,0.935-2.019,1.01c-0.044,0-0.091,0-0.135,0h-6.825V9.069h6.69c0.195,0,0.389,0.015,0.584,0.043
		c-0.075,0-0.151-0.007-0.224-0.022c0.074,0.015,0.149,0.022,0.224,0.022c0.733,0.151,1.339,0.51,1.818,1.079
		c0.479,0.584,0.72,1.248,0.72,1.999C101.917,12.997,101.64,13.7,101.085,14.3z"/>
</g>
<polygon fill="#DAB163" points="93.407,11.74 93.003,10.167 93.003,9.965 93.43,9.965 93.879,11.74 "/>
<polygon fill="#DAB163" points="93.003,25.121 94.529,31.07 93.678,29.631 93.003,26.984 "/>
<polygon fill="#DAB163" points="95.541,32.798 93.587,25.121 94.08,25.121 96.394,34.235 "/>
<polygon fill="#DAB163" points="94.462,11.74 94.013,9.965 94.508,9.965 94.957,11.74 "/>
<polygon fill="#DAB163" points="95.157,25.121 97.649,34.931 97.157,34.931 94.665,25.121 "/>
<path fill="#DAB163" d="M96.056,11.875c-0.164-0.045-0.336-0.084-0.517-0.112L95.09,9.966h0.473L96.056,11.875z"/>
<polygon fill="#DAB163" points="96.977,28.128 98.706,34.931 98.233,34.931 96.147,26.693 "/>
<path fill="#DAB163" d="M97.313,12.638c-0.179-0.18-0.373-0.337-0.584-0.471L96.17,9.965h0.472L97.313,12.638z"/>
<polygon fill="#DAB163" points="98.369,14.411 97.224,9.965 97.717,9.965 98.84,14.411 "/>
<polygon fill="#DAB163" points="98.862,31.293 99.784,34.931 99.311,34.931 98.01,29.857 "/>
<path fill="#DAB163" d="M99.85,14.165c-0.134,0.075-0.284,0.128-0.449,0.158l-1.1-4.356h0.471L99.85,14.165z"/>
<path fill="#EB4949" d="M98.929,15.31c0.045,0,0.091,0,0.135,0C99.02,15.31,98.975,15.31,98.929,15.31z"/>
<path fill="#DAB163" d="M100.705,13.334c-0.091,0.164-0.21,0.314-0.358,0.449l-0.943-3.749c0.179,0.061,0.358,0.143,0.54,0.247
	L100.705,13.334z"/>
<polygon fill="#DAB163" points="100.367,34.931 99.896,33.022 99.963,33.157 100.412,33.157 100.861,34.931 "/>
<path fill="#DAB163" d="M101.018,12.257l-0.29-1.19c0.194,0.344,0.29,0.718,0.29,1.122V12.257z"/>
<polygon fill="#DAB163" points="101.917,34.931 101.445,34.931 100.997,33.157 101.467,33.157 "/>
<path fill="#EB4949" d="M101.691,13.355c-0.076,0.179-0.164,0.345-0.27,0.493C101.527,13.7,101.615,13.536,101.691,13.355z"/>
<path fill="#EB4949" d="M101.735,13.199c0,0.045-0.015,0.095-0.044,0.158C101.722,13.294,101.735,13.244,101.735,13.199z"/>
<polygon fill="#DAB163" points="102.994,34.931 102.522,34.931 102.052,33.157 102.545,33.157 "/>
<polygon fill="#DAB163" points="104.072,34.931 103.579,34.931 103.131,33.157 103.624,33.157 "/>
<polygon fill="#DAB163" points="105.125,34.931 104.656,34.931 104.207,33.157 104.677,33.157 "/>
<polygon fill="#DAB163" points="106.206,34.931 105.732,34.931 105.26,33.157 105.756,33.157 "/>
<polygon fill="#DAB163" points="107.169,34.931 106.788,34.931 106.496,33.785 "/>
<polygon fill="#DAB163" points="111.991,3.702 114.753,14.568 114.753,16.476 111.991,5.611 "/>
<polygon fill="#DAB163" points="111.991,7.921 114.753,18.767 114.753,20.676 111.991,9.809 "/>
<polygon fill="#DAB163" points="111.991,12.123 114.753,22.988 114.753,24.873 111.991,14.007 "/>
<polygon fill="#DAB163" points="111.991,16.32 114.753,27.186 114.753,29.093 111.991,18.228 "/>
<polygon fill="#DAB163" points="111.991,20.54 114.753,31.384 114.753,33.157 115.203,33.157 115.652,34.931 115.178,34.931 
	111.991,22.425 "/>
<polygon fill="#DAB163" points="111.991,24.739 114.595,34.931 114.102,34.931 111.991,26.624 "/>
<polygon fill="#DAB163" points="111.991,28.936 113.518,34.931 113.024,34.931 111.991,30.844 "/>
<polygon fill="#DAB163" points="111.991,33.136 112.44,34.931 111.991,34.931 "/>
<polygon fill="#DAB163" points="112.846,2.826 114.753,10.37 114.753,12.257 112.35,2.826 "/>
<polygon fill="#DAB163" points="113.899,2.826 114.753,6.149 114.753,8.056 113.427,2.826 "/>
<polygon fill="#DAB163" points="114.753,3.859 114.506,2.826 114.753,2.826 "/>
<polygon fill="#EB4949" points="143.288,0.155 143.288,9.067 124.564,9.067 124.564,12.638 137.362,12.638 137.362,19.777 
	124.564,19.777 124.564,23.346 143.288,23.346 143.288,32.259 115.652,32.259 115.652,0.155 "/>
<polygon fill="#DAB163" points="116.279,33.157 116.729,34.931 116.233,34.931 115.787,33.157 "/>
<polygon fill="#DAB163" points="117.334,33.157 117.806,34.931 117.312,34.931 116.863,33.157 "/>
<polygon fill="#DAB163" points="118.411,33.157 118.86,34.931 118.39,34.931 117.94,33.157 "/>
<polygon fill="#DAB163" points="119.489,33.157 119.938,34.931 119.445,34.931 118.996,33.157 "/>
<polygon fill="#DAB163" points="120.545,33.157 121.017,34.931 120.522,34.931 120.072,33.157 "/>
<polygon fill="#DAB163" points="121.623,33.157 122.072,34.931 121.6,34.931 121.15,33.157 "/>
<polygon fill="#DAB163" points="122.701,33.157 123.149,34.931 122.656,34.931 122.207,33.157 "/>
<polygon fill="#DAB163" points="123.756,33.157 124.227,34.931 123.733,34.931 123.285,33.157 "/>
<polygon fill="#DAB163" points="124.833,33.157 125.282,34.931 124.811,34.931 124.36,33.157 "/>
<polygon fill="#DAB163" points="125.911,33.157 126.36,34.931 125.866,34.931 125.417,33.157 "/>
<polygon fill="#DAB163" points="125.461,11.74 125.461,10.37 125.799,11.74 "/>
<polygon fill="#DAB163" points="125.461,20.652 125.935,20.652 126.383,22.448 125.911,22.448 125.461,20.676 "/>
<polygon fill="#DAB163" points="125.935,9.965 126.427,9.965 126.876,11.74 126.404,11.74 "/>
<polygon fill="#DAB163" points="126.965,33.157 127.437,34.931 126.942,34.931 126.495,33.157 "/>
<polygon fill="#DAB163" points="126.516,20.652 127.011,20.652 127.461,22.448 126.988,22.448 "/>
<polygon fill="#DAB163" points="127.011,9.965 127.505,9.965 127.954,11.74 127.461,11.74 "/>
<polygon fill="#DAB163" points="128.045,33.157 128.493,34.931 128.021,34.931 127.572,33.157 "/>
<polygon fill="#DAB163" points="127.595,20.652 128.088,20.652 128.538,22.448 128.045,22.448 "/>
<polygon fill="#DAB163" points="128.088,9.965 128.559,9.965 129.008,11.74 128.538,11.74 "/>
<polygon fill="#DAB163" points="129.122,33.157 129.571,34.931 129.075,34.931 128.627,33.157 "/>
<polygon fill="#DAB163" points="128.673,20.652 129.143,20.652 129.591,22.448 129.122,22.448 "/>
<polygon fill="#DAB163" points="129.143,9.965 129.638,9.965 130.088,11.74 129.616,11.74 "/>
<polygon fill="#DAB163" points="130.176,33.157 130.648,34.931 130.154,34.931 129.705,33.157 "/>
<polygon fill="#DAB163" points="129.728,20.652 130.221,20.652 130.669,22.448 130.198,22.448 "/>
<polygon fill="#DAB163" points="130.221,9.965 130.717,9.965 131.166,11.74 130.669,11.74 "/>
<polygon fill="#DAB163" points="131.254,33.157 131.704,34.931 131.232,34.931 130.783,33.157 "/>
<polygon fill="#DAB163" points="130.804,20.652 131.299,20.652 131.749,22.448 131.254,22.448 "/>
<polygon fill="#DAB163" points="131.299,9.965 131.77,9.965 132.219,11.74 131.749,11.74 "/>
<polygon fill="#DAB163" points="132.331,33.157 132.78,34.931 132.287,34.931 131.838,33.157 "/>
<polygon fill="#DAB163" points="131.882,20.652 132.354,20.652 132.804,22.448 132.331,22.448 "/>
<polygon fill="#DAB163" points="132.354,9.965 132.847,9.965 133.297,11.74 132.826,11.74 "/>
<polygon fill="#DAB163" points="133.387,33.157 133.858,34.931 133.364,34.931 132.916,33.157 "/>
<polygon fill="#DAB163" points="132.938,20.652 133.432,20.652 133.702,21.709 133.702,22.448 133.41,22.448 "/>
<polygon fill="#DAB163" points="133.432,9.965 133.925,9.965 134.374,11.74 133.881,11.74 "/>
<polygon fill="#DAB163" points="134.464,33.157 134.914,34.931 134.441,34.931 133.993,33.157 "/>
<polygon fill="#DAB163" points="134.509,9.965 134.98,9.965 135.43,11.74 134.959,11.74 "/>
<polygon fill="#DAB163" points="135.543,33.157 135.991,34.931 135.498,34.931 135.049,33.157 "/>
<polygon fill="#DAB163" points="135.564,9.965 136.059,9.965 136.507,11.74 136.037,11.74 "/>
<polygon fill="#DAB163" points="136.599,33.157 137.068,34.931 136.574,34.931 136.125,33.157 "/>
<polygon fill="#DAB163" points="136.643,9.965 137.137,9.965 137.585,11.74 137.092,11.74 "/>
<polygon fill="#DAB163" points="137.675,33.157 138.125,34.931 137.653,34.931 137.203,33.157 "/>
<polygon fill="#DAB163" points="137.72,9.965 138.192,9.965 138.641,11.74 138.169,11.74 "/>
<polygon fill="#DAB163" points="138.753,33.157 139.201,34.931 138.709,34.931 138.259,33.157 "/>
<polygon fill="#DAB163" points="138.774,9.965 139.269,9.965 139.628,11.426 139.628,11.74 139.247,11.74 "/>
<polygon fill="#DAB163" points="139.628,34.348 139.338,33.157 139.628,33.157 "/>
<polygon fill="#DAB163" points="147.212,14.838 144.45,3.97 144.45,2.826 144.651,2.826 147.212,12.93 "/>
<polygon fill="#DAB163" points="147.212,19.035 144.45,8.17 144.45,6.283 147.212,17.15 "/>
<polygon fill="#DAB163" points="147.212,23.235 144.45,12.39 144.45,10.48 147.212,21.349 "/>
<polygon fill="#DAB163" points="147.212,27.456 144.45,16.59 144.45,14.682 147.212,25.545 "/>
<polygon fill="#DAB163" points="144.45,18.902 147.212,29.766 147.212,31.654 144.45,20.788 "/>
<polygon fill="#DAB163" points="144.45,23.101 147.461,34.931 146.986,34.931 144.45,25.008 "/>
<polygon fill="#DAB163" points="144.45,27.298 146.379,34.931 145.907,34.931 144.45,29.206 "/>
<polygon fill="#DAB163" points="144.45,31.519 145.324,34.931 144.83,34.931 144.45,33.403 "/>
<polygon fill="#DAB163" points="147.212,10.64 145.236,2.826 145.706,2.826 147.212,8.731 "/>
<polygon fill="#DAB163" points="147.212,6.417 146.289,2.826 146.783,2.826 147.212,4.533 "/>
<polygon fill="#DAB163" points="148.537,34.931 148.039,34.931 147.59,33.157 148.088,33.157 "/>
<polygon fill="#DAB163" points="149.121,34.931 148.672,33.157 149.143,33.157 149.592,34.931 "/>
<polygon fill="#DAB163" points="149.726,33.157 150.218,33.157 150.669,34.931 150.198,34.931 "/>
<polygon fill="#DAB163" points="151.297,33.157 151.746,34.931 151.252,34.931 150.804,33.157 "/>
<polygon fill="#DAB163" points="152.352,33.157 152.801,34.931 152.33,34.931 151.881,33.157 "/>
<polygon fill="#DAB163" points="153.43,33.157 153.879,34.931 153.407,34.931 152.936,33.157 "/>
<polygon fill="#DAB163" points="154.958,34.931 154.464,34.931 154.013,33.157 154.507,33.157 "/>
<polygon fill="#DAB163" points="155.541,34.931 155.092,33.157 155.563,33.157 156.011,34.931 "/>
<polygon fill="#DAB163" points="156.618,34.931 156.146,33.157 156.641,33.157 157.088,34.931 "/>
<g>
	<path fill="#EB4949" d="M172.827,4.848c-3.146-3.129-6.921-4.693-11.337-4.693h-13.383v32.104h13.383
		c4.416,0,8.194-1.571,11.337-4.714c3.144-3.143,4.715-6.923,4.715-11.337C177.542,11.776,175.971,7.989,172.827,4.848z
		 M166.519,21.236c-1.391,1.408-3.067,2.11-5.028,2.11h-4.468V9.069h4.468c1.961,0,3.638,0.695,5.028,2.086
		c1.406,1.393,2.111,3.077,2.111,5.053C168.63,18.167,167.925,19.845,166.519,21.236z"/>
</g>
<path fill="#DAB163" d="M157.673,34.931l-0.449-1.774h0.496l0.447,1.774c-0.135,0-0.245,0-0.338,0H157.673z"/>
<path fill="#DAB163" d="M158.234,9.965l0.472,1.841c-0.193-0.031-0.36-0.044-0.492-0.044l-0.292-1.122V9.966h0.312V9.965z"/>
<path fill="#DAB163" d="M159.22,34.865c-0.162,0.015-0.319,0.03-0.47,0.044l-0.449-1.753h0.472L159.22,34.865z"/>
<path fill="#DAB163" d="M159.291,9.965l0.538,2.067c-0.18-0.061-0.352-0.104-0.518-0.135l-0.492-1.932H159.291z"/>
<path fill="#DAB163" d="M160.255,34.751c-0.135,0.016-0.291,0.038-0.472,0.067l-0.427-1.662h0.495L160.255,34.751z"/>
<path fill="#DAB163" d="M160.368,9.965l0.65,2.537c-0.181-0.089-0.359-0.171-0.541-0.246l-0.583-2.291H160.368z"/>
<path fill="#DAB163" d="M161.287,34.548c-0.163,0.044-0.321,0.075-0.472,0.091l-0.383-1.483h0.494L161.287,34.548z"/>
<path fill="#DAB163" d="M162.297,13.311c-0.193-0.15-0.391-0.291-0.583-0.426l-0.763-2.918h0.495L162.297,13.311z"/>
<path fill="#DAB163" d="M162.277,34.302c-0.165,0.045-0.313,0.083-0.45,0.112l-0.312-1.258c0.148,0,0.305-0.007,0.47-0.022
	L162.277,34.302z"/>
<path fill="#DAB163" d="M163.78,14.95c-0.209-0.33-0.448-0.637-0.72-0.922l-1.032-4.042c0.163,0.015,0.33,0.037,0.494,0.068
	L163.78,14.95z"/>
<path fill="#DAB163" d="M163.263,33.988c-0.135,0.044-0.277,0.089-0.427,0.135l-0.269-1.011c0.165-0.015,0.323-0.031,0.474-0.044
	L163.263,33.988z"/>
<path fill="#DAB163" d="M166.205,20.27c-0.12,0.151-0.248,0.286-0.382,0.406L163.15,10.19c0.182,0.045,0.359,0.103,0.539,0.18
	L166.205,20.27z"/>
<path fill="#DAB163" d="M164.253,33.585c-0.15,0.074-0.3,0.143-0.45,0.201l-0.178-0.763c0.147-0.031,0.298-0.051,0.448-0.067
	L164.253,33.585z"/>
<path fill="#DAB163" d="M166.99,19.149c-0.104,0.194-0.219,0.382-0.338,0.561l-2.313-9.046c0.196,0.104,0.385,0.216,0.563,0.336
	L166.99,19.149z"/>
<path fill="#EB4949" d="M164.364,21.73c0.045-0.104,0.061-0.135,0.045-0.091l0.021,0.068
	C164.477,21.677,164.454,21.686,164.364,21.73z"/>
<path fill="#DAB163" d="M165.195,33.136c-0.15,0.075-0.293,0.15-0.427,0.225l-0.136-0.518c0.15-0.031,0.307-0.059,0.473-0.09
	L165.195,33.136z"/>
<path fill="#DAB163" d="M164.744,20.63c0.092-0.375,0.152-0.756,0.182-1.146l0.426,1.618c-0.134,0.104-0.27,0.202-0.404,0.292
	L164.744,20.63z"/>
<path fill="#DAB163" d="M167.62,17.397c-0.062,0.314-0.145,0.613-0.248,0.898l-1.729-6.736c0.239,0.209,0.457,0.435,0.652,0.672
	L167.62,17.397z"/>
<path fill="#DAB163" d="M166.137,32.62c-0.12,0.074-0.261,0.157-0.426,0.246l-0.044-0.246c0.15-0.032,0.298-0.069,0.447-0.113
	L166.137,32.62z"/>
<path fill="#DAB163" d="M167.372,14.097c0.136,0.373,0.233,0.755,0.293,1.145L167.372,14.097z"/>
<path fill="#EB4949" d="M168.585,16.971c-0.046,0.374-0.121,0.74-0.225,1.1C168.464,17.711,168.539,17.345,168.585,16.971z"/>
<polygon fill="#DAB163" points="76.98,45.741 79.426,55.374 79.426,57.282 76.664,46.415 76.664,45.741 "/>
<polygon fill="#DAB163" points="76.664,48.728 79.426,59.595 79.426,61.479 76.664,50.612 "/>
<polygon fill="#DAB163" points="76.664,52.927 79.426,63.792 79.426,65.7 76.664,54.833 "/>
<polygon fill="#DAB163" points="76.664,57.146 79.426,67.99 79.426,69.899 76.664,59.032 "/>
<polygon fill="#DAB163" points="76.664,61.345 79.426,72.21 79.426,74.1 76.664,63.232 "/>
<polygon fill="#DAB163" points="76.664,65.543 79.785,77.846 79.315,77.846 76.664,67.452 "/>
<polygon fill="#DAB163" points="76.664,69.742 78.73,77.846 78.235,77.846 76.664,71.65 "/>
<polygon fill="#DAB163" points="76.664,73.963 77.654,77.846 77.181,77.846 76.664,75.849 "/>
<polygon fill="#DAB163" points="78.035,45.741 79.426,51.175 79.426,53.083 77.562,45.741 "/>
<polygon fill="#DAB163" points="79.426,48.863 78.641,45.741 79.111,45.741 79.426,46.976 "/>
<polygon fill="#DAB163" points="80.413,76.074 80.862,77.846 80.392,77.846 79.919,76.074 "/>
<polygon fill="#EB4949" points="89.238,43.07 89.238,66.262 107.961,66.262 107.961,75.175 80.323,75.175 80.323,43.07 "/>
<polygon fill="#DAB163" points="81.491,76.074 81.939,77.846 81.447,77.846 80.998,76.074 "/>
<polygon fill="#DAB163" points="82.547,76.074 82.996,77.846 82.524,77.846 82.074,76.074 "/>
<polygon fill="#DAB163" points="83.625,76.074 84.074,77.846 83.602,77.846 83.131,76.074 "/>
<polygon fill="#DAB163" points="84.703,76.074 85.151,77.846 84.657,77.846 84.208,76.074 "/>
<polygon fill="#DAB163" points="85.758,76.074 86.207,77.846 85.735,77.846 85.286,76.074 "/>
<polygon fill="#DAB163" points="86.835,76.074 87.284,77.846 86.813,77.846 86.342,76.074 "/>
<polygon fill="#DAB163" points="87.913,76.074 88.362,77.846 87.868,77.846 87.419,76.074 "/>
<polygon fill="#DAB163" points="88.968,76.074 89.417,77.846 88.945,77.846 88.497,76.074 "/>
<polygon fill="#DAB163" points="90.046,76.074 90.495,77.846 90.023,77.846 89.551,76.074 "/>
<polygon fill="#DAB163" points="91.125,76.074 91.573,77.846 91.077,77.846 90.628,76.074 "/>
<polygon fill="#DAB163" points="92.178,76.074 92.628,77.846 92.157,77.846 91.708,76.074 "/>
<polygon fill="#DAB163" points="93.256,76.074 93.705,77.846 93.234,77.846 92.763,76.074 "/>
<polygon fill="#DAB163" points="94.333,76.074 94.782,77.846 94.289,77.846 93.839,76.074 "/>
<polygon fill="#DAB163" points="95.39,76.074 95.839,77.846 95.366,77.846 94.917,76.074 "/>
<polygon fill="#DAB163" points="96.466,76.074 96.915,77.846 96.443,77.846 95.974,76.074 "/>
<polygon fill="#DAB163" points="97.544,76.074 97.994,77.846 97.5,77.846 97.05,76.074 "/>
<polygon fill="#DAB163" points="98.6,76.074 99.049,77.846 98.577,77.846 98.128,76.074 "/>
<polygon fill="#DAB163" points="99.677,76.074 100.127,77.846 99.655,77.846 99.183,76.074 "/>
<polygon fill="#DAB163" points="100.754,76.074 101.203,77.846 100.71,77.846 100.261,76.074 "/>
<polygon fill="#DAB163" points="101.809,76.074 102.259,77.846 101.789,77.846 101.338,76.074 "/>
<polygon fill="#DAB163" points="102.888,76.074 103.336,77.846 102.866,77.846 102.394,76.074 "/>
<polygon fill="#DAB163" points="103.967,76.074 104.301,77.466 104.301,77.846 103.92,77.846 103.471,76.074 "/>
<polygon fill="#DAB163" points="109.123,46.618 111.886,57.483 111.886,59.392 109.123,48.526 "/>
<polygon fill="#DAB163" points="109.123,50.838 111.886,61.682 111.886,63.59 109.123,52.722 "/>
<polygon fill="#DAB163" points="109.123,55.037 111.886,65.904 111.886,67.789 109.123,56.921 "/>
<polygon fill="#DAB163" points="109.123,59.232 111.886,70.098 111.886,72.009 109.123,61.143 "/>
<polygon fill="#DAB163" points="109.123,63.454 111.886,74.3 111.886,76.074 112.334,76.074 112.783,77.846 112.312,77.846 
	109.123,65.342 "/>
<polygon fill="#DAB163" points="109.123,67.654 111.727,77.846 111.234,77.846 109.123,69.539 "/>
<polygon fill="#DAB163" points="109.123,71.852 110.649,77.846 110.157,77.846 109.123,73.762 "/>
<polygon fill="#DAB163" points="109.123,76.05 109.572,77.846 109.123,77.846 "/>
<polygon fill="#DAB163" points="109.975,45.741 111.886,53.285 111.886,55.171 109.482,45.741 "/>
<polygon fill="#DAB163" points="111.031,45.741 111.886,49.063 111.886,50.971 110.559,45.741 "/>
<polygon fill="#DAB163" points="111.886,46.774 111.637,45.741 111.886,45.741 "/>
<polygon fill="#EB4949" points="140.419,43.07 140.419,51.982 121.695,51.982 121.695,55.553 134.493,55.553 134.493,62.691 
	121.695,62.691 121.695,66.262 140.419,66.262 140.419,75.175 112.783,75.175 112.783,43.07 "/>
<polygon fill="#DAB163" points="113.413,76.074 113.861,77.846 113.366,77.846 112.917,76.074 "/>
<polygon fill="#DAB163" points="114.466,76.074 114.938,77.846 114.443,77.846 113.995,76.074 "/>
<polygon fill="#DAB163" points="115.544,76.074 115.993,77.846 115.523,77.846 115.074,76.074 "/>
<polygon fill="#DAB163" points="116.621,76.074 117.07,77.846 116.576,77.846 116.128,76.074 "/>
<polygon fill="#DAB163" points="117.677,76.074 118.147,77.846 117.654,77.846 117.205,76.074 "/>
<polygon fill="#DAB163" points="118.755,76.074 119.204,77.846 118.731,77.846 118.282,76.074 "/>
<polygon fill="#DAB163" points="119.833,76.074 120.281,77.846 119.787,77.846 119.338,76.074 "/>
<polygon fill="#DAB163" points="120.888,76.074 121.359,77.846 120.865,77.846 120.416,76.074 "/>
<polygon fill="#DAB163" points="121.964,76.074 122.415,77.846 121.943,77.846 121.495,76.074 "/>
<polygon fill="#DAB163" points="123.042,76.074 123.492,77.846 122.999,77.846 122.55,76.074 "/>
<polygon fill="#DAB163" points="122.594,54.655 122.594,53.285 122.932,54.655 "/>
<polygon fill="#DAB163" points="122.594,63.566 123.066,63.566 123.514,65.364 123.042,65.364 122.594,63.59 "/>
<polygon fill="#DAB163" points="123.066,52.881 123.56,52.881 124.008,54.655 123.537,54.655 "/>
<polygon fill="#DAB163" points="124.098,76.074 124.57,77.846 124.077,77.846 123.627,76.074 "/>
<polygon fill="#DAB163" points="123.648,63.566 124.144,63.566 124.593,65.364 124.121,65.364 "/>
<polygon fill="#DAB163" points="124.144,52.881 124.637,52.881 125.085,54.655 124.593,54.655 "/>
<polygon fill="#DAB163" points="125.175,76.074 125.624,77.846 125.153,77.846 124.705,76.074 "/>
<polygon fill="#DAB163" points="124.727,63.566 125.221,63.566 125.67,65.364 125.175,65.364 "/>
<polygon fill="#DAB163" points="125.221,52.881 125.691,52.881 126.14,54.655 125.67,54.655 "/>
<polygon fill="#DAB163" points="126.254,76.074 126.703,77.846 126.208,77.846 125.758,76.074 "/>
<polygon fill="#DAB163" points="125.805,63.566 126.276,63.566 126.725,65.364 126.254,65.364 "/>
<polygon fill="#DAB163" points="126.276,52.881 126.77,52.881 127.218,54.655 126.747,54.655 "/>
<polygon fill="#DAB163" points="127.309,76.074 127.782,77.846 127.285,77.846 126.836,76.074 "/>
<polygon fill="#DAB163" points="126.859,63.566 127.353,63.566 127.803,65.364 127.332,65.364 "/>
<polygon fill="#DAB163" points="127.353,52.881 127.848,52.881 128.297,54.655 127.803,54.655 "/>
<polygon fill="#DAB163" points="128.386,76.074 128.834,77.846 128.365,77.846 127.916,76.074 "/>
<polygon fill="#DAB163" points="127.937,63.566 128.43,63.566 128.879,65.364 128.386,65.364 "/>
<polygon fill="#DAB163" points="128.43,52.881 128.903,52.881 129.352,54.655 128.879,54.655 "/>
<polygon fill="#DAB163" points="129.463,76.074 129.913,77.846 129.419,77.846 128.97,76.074 "/>
<polygon fill="#DAB163" points="129.015,63.566 129.487,63.566 129.935,65.364 129.463,65.364 "/>
<polygon fill="#DAB163" points="129.487,52.881 129.979,52.881 130.429,54.655 129.959,54.655 "/>
<polygon fill="#DAB163" points="130.519,76.074 130.99,77.846 130.497,77.846 130.047,76.074 "/>
<polygon fill="#DAB163" points="130.07,63.566 130.564,63.566 130.833,64.622 130.833,65.364 130.54,65.364 "/>
<polygon fill="#DAB163" points="130.564,52.881 131.058,52.881 131.505,54.655 131.013,54.655 "/>
<polygon fill="#DAB163" points="131.597,76.074 132.045,77.846 131.575,77.846 131.125,76.074 "/>
<polygon fill="#DAB163" points="131.641,52.881 132.114,52.881 132.562,54.655 132.091,54.655 "/>
<polygon fill="#DAB163" points="132.674,76.074 133.123,77.846 132.629,77.846 132.18,76.074 "/>
<polygon fill="#DAB163" points="132.697,52.881 133.191,52.881 133.64,54.655 133.167,54.655 "/>
<polygon fill="#DAB163" points="133.73,76.074 134.201,77.846 133.708,77.846 133.258,76.074 "/>
<polygon fill="#DAB163" points="133.774,52.881 134.268,52.881 134.717,54.655 134.223,54.655 "/>
<polygon fill="#DAB163" points="134.809,76.074 135.257,77.846 134.786,77.846 134.336,76.074 "/>
<polygon fill="#DAB163" points="134.853,52.881 135.324,52.881 135.773,54.655 135.301,54.655 "/>
<polygon fill="#DAB163" points="135.886,76.074 136.334,77.846 135.839,77.846 135.39,76.074 "/>
<polygon fill="#DAB163" points="135.907,52.881 136.402,52.881 136.76,54.341 136.76,54.655 136.379,54.655 "/>
<polygon fill="#DAB163" points="136.76,77.263 136.47,76.074 136.76,76.074 "/>
<path fill="#DAB163" d="M144.86,71.562c-0.271-0.345-0.527-0.699-0.765-1.056l-2.516-9.903c0.032-0.432,0.084-0.866,0.16-1.3
	L144.86,71.562z"/>
<path fill="#DAB163" d="M143.019,68.53c-0.824-1.782-1.305-3.661-1.439-5.637L143.019,68.53z"/>
<path fill="#DAB163" d="M146.25,73.153c-0.179-0.194-0.359-0.391-0.539-0.583l-3.727-14.572c0.075-0.299,0.158-0.606,0.246-0.921
	l4.132,16.166c-0.105-0.104-0.143-0.143-0.111-0.112V73.153L146.25,73.153z"/>
<path fill="#DAB163" d="M147.733,74.458c-0.211-0.164-0.41-0.338-0.607-0.517l-4.558-17.851c0.105-0.239,0.208-0.478,0.314-0.719
	l1.638,6.486c0.164,0.989,0.413,1.953,0.74,2.899L147.733,74.458z"/>
<path fill="#DAB163" d="M143.265,54.567c0.105-0.212,0.209-0.421,0.314-0.631l0.831,3.279c-0.032,0.345-0.052,0.679-0.066,1.01
	l-0.025,0.021c0,0.122,0,0.256,0,0.405v0.046L143.265,54.567z"/>
<path fill="#DAB163" d="M144.007,53.263c0.121-0.193,0.231-0.373,0.337-0.541l0.517,2.044c-0.073,0.332-0.148,0.668-0.226,1.01
	L144.007,53.263z"/>
<path fill="#DAB163" d="M145.466,52.927c-0.105,0.254-0.203,0.517-0.291,0.784l-0.403-1.593c0.119-0.136,0.245-0.284,0.379-0.45
	L145.466,52.927z"/>
<path fill="#EB4949" d="M177.303,55.553v3.704c-0.031,4.398-1.61,8.148-4.74,11.249c-3.145,3.112-6.915,4.669-11.315,4.669
	c-4.414,0-8.194-1.57-11.336-4.713h-0.023c-0.092-0.091-0.187-0.195-0.29-0.313c0.014,0.014,0.009,0.006-0.024-0.025
	c-2.709-2.857-4.161-6.249-4.356-10.17c0-0.119-0.01-0.246-0.022-0.382v-0.043c0-0.137,0-0.271,0-0.405c0-0.135,0-0.27,0-0.405
	v-0.044c0.013-0.136,0.022-0.265,0.022-0.381c0.195-3.729,1.526-6.992,3.996-9.792c0.12-0.133,0.246-0.269,0.385-0.403
	c0.101-0.119,0.207-0.23,0.312-0.337c2.905-2.905,6.406-4.461,10.505-4.671h0.023c0.104-0.016,0.218-0.021,0.337-0.021
	c0.092,0,0.114,0,0.065,0c0.137,0,0.271,0,0.406,0c4.432,0,8.217,1.564,11.359,4.692l-6.306,6.309
	c-0.943-0.943-2.067-1.572-3.368-1.886c-1.258-0.299-2.5-0.261-3.728,0.111c-0.105,0.03-0.192,0.053-0.271,0.068l-0.067,0.025
	c-0.015,0.014-0.045,0.029-0.089,0.043c0.044-0.016,0.074-0.032,0.089-0.043c-0.045,0.014-0.109,0.043-0.203,0.088
	c-0.075,0.03-0.117,0.045-0.134,0.045c-0.015,0.016-0.059,0.035-0.135,0.065c-0.105,0.046-0.179,0.076-0.224,0.094
	c0.017,0,0.037-0.008,0.067-0.023c-0.03,0.016-0.051,0.023-0.067,0.023c0.031-0.018,0.017-0.008-0.046,0.021
	c-0.09,0.044-0.191,0.104-0.313,0.179c0.105-0.061,0.212-0.12,0.313-0.179c-0.357,0.179-0.701,0.388-1.03,0.628
	c0.075-0.06,0.142-0.11,0.2-0.158c-0.059,0.061-0.125,0.113-0.2,0.158c-0.06,0.045-0.129,0.09-0.203,0.134
	c0.059-0.044,0.127-0.089,0.203-0.134c-0.24,0.164-0.466,0.35-0.675,0.561c-0.073,0.059-0.141,0.12-0.204,0.179
	c-0.073,0.075-0.138,0.144-0.198,0.205c0.061-0.062,0.125-0.13,0.198-0.205c-1.194,1.198-1.884,2.637-2.064,4.312
	c-0.015,0.103-0.022,0.219-0.022,0.337c0,0.09,0,0.105,0,0.045c-0.018,0.119-0.023,0.238-0.023,0.359
	c0,0.116,0.006,0.237,0.023,0.356c0-0.074,0-0.06,0,0.046c0,0.12,0.008,0.225,0.022,0.312v0.023c0.179,1.799,0.951,3.31,2.314,4.536
	c1.36,1.243,2.955,1.862,4.78,1.862c0.854,0,1.677-0.148,2.47-0.449c-0.104,0.046-0.21,0.085-0.314,0.114
	c0.104-0.031,0.211-0.068,0.314-0.114c0.524-0.194,1.018-0.448,1.482-0.763c0.134-0.09,0.271-0.178,0.404-0.271
	c-0.134,0.093-0.271,0.181-0.404,0.271c0.329-0.21,0.629-0.449,0.897-0.719c0.045-0.029,0.098-0.065,0.159-0.109
	c0.463-0.465,0.854-0.974,1.167-1.527h-4.378v-7.139H177.303z"/>
<path fill="#DAB163" d="M146.161,51.422c-0.117,0.212-0.231,0.428-0.336,0.651l-0.226-0.944c0.135-0.15,0.265-0.283,0.385-0.402
	L146.161,51.422z"/>
<path fill="#DAB163" d="M146.903,50.12c-0.12,0.178-0.24,0.367-0.36,0.561l-0.09-0.426c0.118-0.135,0.246-0.255,0.38-0.359
	L146.903,50.12z"/>
<path fill="#DAB163" d="M149.035,75.377c-0.193-0.12-0.389-0.245-0.583-0.379l-1.862-7.389c0.237,0.421,0.499,0.832,0.784,1.236
	L149.035,75.377z"/>
<polygon fill="#EB4949" points="147.307,49.47 147.33,49.47 147.33,49.448 "/>
<path fill="#DAB163" d="M150.292,76.096c-0.178-0.091-0.367-0.195-0.561-0.315l-1.483-5.791c0.226,0.254,0.449,0.508,0.675,0.763
	L150.292,76.096z"/>
<path fill="#EB4949" d="M149.573,70.123v0.025h0.024h-0.024C149.573,70.133,149.573,70.123,149.573,70.123z"/>
<path fill="#DAB163" d="M151.504,76.658c-0.193-0.091-0.374-0.174-0.538-0.249l-1.236-4.848l0.181,0.179l0.021-0.022
	c0.12,0.104,0.256,0.222,0.404,0.358L151.504,76.658z"/>
<path fill="#DAB163" d="M152.671,77.082c-0.177-0.059-0.35-0.118-0.515-0.178l-1.079-4.242c0.197,0.148,0.391,0.291,0.583,0.425
	L152.671,77.082z"/>
<path fill="#DAB163" d="M153.842,77.397c-0.181-0.045-0.354-0.091-0.517-0.135l-0.944-3.727c0.181,0.119,0.365,0.231,0.562,0.337
	L153.842,77.397z"/>
<path fill="#DAB163" d="M154.964,77.621c-0.182-0.028-0.347-0.059-0.496-0.089l-0.852-3.276c0.178,0.089,0.366,0.169,0.559,0.245
	L154.964,77.621z"/>
<path fill="#DAB163" d="M156.062,77.78c-0.181-0.018-0.345-0.037-0.493-0.067l-0.74-2.919c0.18,0.073,0.358,0.147,0.539,0.225
	L156.062,77.78z"/>
<path fill="#EB4949" d="M155.433,54.99c0.047-0.059,0.095-0.117,0.137-0.177C155.524,54.873,155.479,54.932,155.433,54.99z"/>
<path fill="#DAB163" d="M157.163,77.846c-0.149,0-0.313-0.006-0.494-0.021l-0.65-2.583c0.164,0.045,0.338,0.097,0.516,0.156
	L157.163,77.846z"/>
<path fill="#EB4949" d="M156.217,54.069c0.063-0.059,0.131-0.12,0.204-0.179C156.348,53.949,156.28,54.011,156.217,54.069z"/>
<path fill="#DAB163" d="M157.14,54.432c0.135-0.119,0.271-0.225,0.405-0.313l0.134,0.539c-0.164,0-0.32,0.006-0.472,0.02
	L157.14,54.432z"/>
<path fill="#DAB163" d="M158.218,77.824c-0.15,0.016-0.307,0.021-0.473,0.021l-0.585-2.289c0.165,0.046,0.34,0.09,0.519,0.135
	L158.218,77.824z"/>
<path fill="#DAB163" d="M158.038,53.779c0.137-0.091,0.279-0.17,0.428-0.245l0.314,1.231c-0.166-0.029-0.331-0.05-0.496-0.065
	L158.038,53.779z"/>
<path fill="#DAB163" d="M159.275,77.757c-0.165,0.016-0.325,0.03-0.473,0.045l-0.494-1.999c0.135,0.03,0.299,0.059,0.494,0.089
	L159.275,77.757z"/>
<path fill="#EB4949" d="M159.205,52.297c-0.104,0.028-0.192,0.054-0.269,0.068C159.013,52.351,159.1,52.325,159.205,52.297z"/>
<path fill="#DAB163" d="M159.925,55.059c-0.181-0.061-0.354-0.112-0.519-0.156l-0.425-1.594h0.022
	c0.076-0.032,0.128-0.054,0.159-0.069h0.021v-0.02h0.046c0.061-0.017,0.126-0.037,0.2-0.068L159.925,55.059z"/>
<path fill="#DAB163" d="M161.25,65.364c-0.075,0-0.165,0-0.269,0l-1.596-6.332v-0.809h0.271l1.819,7.141
	C161.37,65.364,161.294,65.364,161.25,65.364z"/>
<path fill="#DAB163" d="M160.396,65.299c-0.163-0.016-0.336-0.046-0.516-0.091l-0.494-1.976v-1.885L160.396,65.299z"/>
<path fill="#DAB163" d="M159.406,75.96c0.179,0.018,0.346,0.032,0.494,0.045l0.403,1.616c-0.147,0.032-0.298,0.054-0.448,0.069
	L159.406,75.96z"/>
<path fill="#DAB163" d="M159.991,53.015c0.15-0.028,0.299-0.059,0.45-0.088l0.696,2.67c-0.195-0.104-0.385-0.199-0.563-0.291
	L159.991,53.015z"/>
<path fill="#DAB163" d="M162.508,65.228c-0.15,0.033-0.3,0.062-0.451,0.094l-1.819-7.096h0.494L162.508,65.228z"/>
<path fill="#DAB163" d="M160.508,76.05c0.15,0,0.305,0,0.474,0l0.357,1.373c-0.164,0.028-0.322,0.06-0.472,0.089L160.508,76.05z"/>
<path fill="#DAB163" d="M162.146,56.294c-0.102-0.093-0.21-0.172-0.313-0.249l-0.807-3.164c0.088,0,0.165,0,0.224,0
	c0.073,0,0.165,0,0.271,0l0.626,2.517V56.294z"/>
<polygon fill="#DAB163" points="161.788,58.224 162.146,59.595 162.146,61.479 161.314,58.224 "/>
<path fill="#DAB163" d="M161.563,76.05c0.181,0,0.343,0,0.493,0l0.271,1.078c-0.136,0.046-0.284,0.091-0.449,0.135L161.563,76.05z"
	/>
<path fill="#DAB163" d="M162.551,54.655l-0.449-1.707c0.164,0.018,0.335,0.047,0.517,0.092l0.404,1.617h-0.472V54.655z"/>
<path fill="#DAB163" d="M162.641,76.005c0.152-0.015,0.307-0.029,0.473-0.045l0.204,0.833c-0.152,0.06-0.301,0.111-0.451,0.158
	L162.641,76.005z"/>
<path fill="#DAB163" d="M163.516,64.938c-0.164,0.061-0.314,0.112-0.448,0.156l-0.381-1.527h0.47L163.516,64.938z"/>
<path fill="#DAB163" d="M163.248,53.195c0.179,0.06,0.359,0.135,0.538,0.225l0.315,1.235h-0.474L163.248,53.195z"/>
<path fill="#DAB163" d="M163.675,75.895c0.164-0.03,0.32-0.053,0.472-0.067l0.134,0.561c-0.15,0.075-0.29,0.142-0.424,0.201
	L163.675,75.895z"/>
<path fill="#DAB163" d="M164.235,63.566l0.226,0.899c-0.137,0.075-0.28,0.152-0.43,0.225l-0.29-1.124H164.235z"/>
<path fill="#EB4949" d="M164.685,65.364c-0.136,0.09-0.276,0.163-0.427,0.225C164.408,65.528,164.549,65.454,164.685,65.364z"/>
<path fill="#DAB163" d="M164.461,53.757c0.193,0.118,0.387,0.254,0.582,0.403l0.046,0.158l-0.359,0.339h-0.045L164.461,53.757z"/>
<path fill="#DAB163" d="M165.224,75.916c-0.122,0.074-0.265,0.15-0.43,0.226l-0.087-0.43c0.132-0.029,0.284-0.065,0.447-0.109
	L165.224,75.916z"/>
<path fill="#DAB163" d="M165.357,63.815c-0.119,0.104-0.256,0.211-0.404,0.313l-0.135-0.562h0.47L165.357,63.815z"/>
<path fill="#DAB163" d="M166.166,75.377c-0.134,0.074-0.278,0.159-0.424,0.248l-0.045-0.158c0.163-0.046,0.312-0.09,0.449-0.135
	L166.166,75.377z"/>
<path fill="#EB4949" d="M166.256,64.219c-0.061,0.044-0.111,0.083-0.159,0.112C166.145,64.302,166.195,64.267,166.256,64.219z"/>
<polygon fill="#DAB163" points="175.508,77.557 175.576,77.846 175.396,77.846 "/>
<polygon fill="#DAB163" points="176.161,75.895 176.654,77.846 176.184,77.846 175.871,76.634 "/>
<polygon fill="#DAB163" points="176.812,74.234 177.732,77.846 177.238,77.846 176.521,74.973 "/>
<polygon fill="#DAB163" points="177.465,72.574 178.114,75.132 177.821,75.895 177.171,73.312 "/>
<polygon fill="#DAB163" points="178.114,70.911 178.765,73.471 178.474,74.234 177.821,71.675 "/>
<polygon fill="#DAB163" points="178.338,76.074 178.789,77.846 178.313,77.846 177.868,76.074 "/>
<polygon fill="#DAB163" points="178.745,69.249 179.417,71.83 179.124,72.574 178.452,70.012 "/>
<polygon fill="#DAB163" points="179.417,76.074 179.866,77.846 179.393,77.846 178.923,76.074 "/>
<polygon fill="#DAB163" points="179.393,67.587 180.045,70.169 179.753,70.911 179.102,68.352 "/>
<polygon fill="#DAB163" points="180.045,65.947 180.696,68.507 180.407,69.249 179.753,66.691 "/>
<polygon fill="#DAB163" points="180.495,76.074 180.943,77.846 180.449,77.846 180.001,76.074 "/>
<polygon fill="#DAB163" points="180.696,64.287 181.348,66.846 181.055,67.587 180.407,65.029 "/>
<polygon fill="#DAB163" points="181.348,62.625 181.998,65.185 181.708,65.927 181.055,63.365 "/>
<polygon fill="#DAB163" points="181.549,76.074 182.019,77.846 181.526,77.846 181.08,76.074 "/>
<polygon fill="#DAB163" points="181.998,60.963 182.646,63.522 182.356,64.267 181.708,61.704 "/>
<polygon fill="#DAB163" points="182.626,76.074 183.076,77.846 182.604,77.846 182.132,76.074 "/>
<polygon fill="#DAB163" points="182.646,59.303 183.302,61.861 183.008,62.625 182.356,60.042 "/>
<polygon fill="#DAB163" points="183.302,57.639 183.951,60.202 183.659,60.963 183.008,58.382 "/>
<polygon fill="#DAB163" points="183.704,76.074 184.153,77.846 183.659,77.846 183.21,76.074 "/>
<polygon fill="#DAB163" points="183.929,55.979 184.582,58.538 184.289,59.303 183.637,56.742 "/>
<polygon fill="#DAB163" points="184.582,54.318 185.23,56.898 184.941,57.639 184.289,55.082 "/>
<polygon fill="#DAB163" points="184.756,76.074 185.12,77.466 184.962,77.846 184.736,77.846 184.289,76.074 "/>
<polygon fill="#DAB163" points="185.23,52.657 185.883,55.238 185.589,55.979 184.941,53.42 "/>
<polygon fill="#DAB163" points="185.479,76.544 185.342,76.074 185.68,76.074 "/>
<polygon fill="#DAB163" points="185.883,51.019 186.533,53.577 186.242,54.318 185.589,51.758 "/>
<polygon fill="#DAB163" points="186.533,49.356 187.181,51.917 186.891,52.657 186.242,50.099 "/>
<polygon fill="#DAB163" points="187.181,47.693 187.836,50.255 187.545,50.994 186.891,48.437 "/>
<polygon fill="#DAB163" points="187.836,46.032 188.485,48.594 188.195,49.333 187.545,46.774 "/>
<polygon fill="#DAB163" points="188.823,47.673 188.329,45.741 188.823,45.741 189.114,46.932 "/>
<polygon fill="#DAB163" points="189.588,45.741 189.477,46.032 189.406,45.741 "/>
<polygon fill="#DAB163" points="190.504,73.38 190.283,73.38 190.417,73.043 "/>
<polygon fill="#DAB163" points="191.585,73.38 191.089,73.38 190.776,72.125 190.978,71.604 191.114,71.604 "/>
<polygon fill="#DAB163" points="192.64,73.38 192.167,73.38 191.718,71.604 192.19,71.604 "/>
<polygon fill="#DAB163" points="193.717,73.38 193.225,73.38 192.774,71.604 193.269,71.604 "/>
<g>
	<path fill="#EB4949" d="M201.846,43.07h-10.238L179.06,75.175h9.561l1.754-4.469h12.437l1.705,4.469h9.543L201.846,43.07z
		 M193.854,61.794l0.449-1.169l0.269-0.672l2.107-5.389l2.742,7.229H193.854z"/>
</g>
<polygon fill="#DAB163" points="194.795,73.38 194.303,73.38 193.854,71.604 194.326,71.604 "/>
<polygon fill="#DAB163" points="195.849,73.38 195.38,73.38 194.931,71.604 195.402,71.604 "/>
<polygon fill="#DAB163" points="195.604,59.772 195.895,60.895 195.402,60.895 195.311,60.516 "/>
<polygon fill="#DAB163" points="196.254,58.112 196.949,60.895 196.48,60.895 195.964,58.854 "/>
<polygon fill="#DAB163" points="196.927,73.38 196.457,73.38 195.986,71.604 196.48,71.604 "/>
<polygon fill="#DAB163" points="197.827,60.132 198.028,60.895 197.558,60.895 196.613,57.19 196.659,57.057 "/>
<polygon fill="#DAB163" points="198.006,73.38 197.512,73.38 197.062,71.604 197.534,71.604 "/>
<polygon fill="#DAB163" points="199.061,73.38 198.59,73.38 198.141,71.604 198.612,71.604 "/>
<polygon fill="#DAB163" points="199.691,71.604 201.285,77.846 200.857,77.846 200.679,77.372 199.195,71.604 "/>
<polygon fill="#DAB163" points="200.744,71.604 202.339,77.846 201.87,77.846 200.274,71.604 "/>
<polygon fill="#DAB163" points="201.823,71.604 203.416,77.846 202.923,77.846 201.352,71.604 "/>
<polygon fill="#DAB163" points="202.855,73.312 203.66,75.488 203.888,76.074 204.024,76.074 204.493,77.846 204,77.846 "/>
<polygon fill="#DAB163" points="205.102,76.074 205.549,77.846 205.079,77.846 204.63,76.074 "/>
<polygon fill="#DAB163" points="206.177,76.074 206.626,77.846 206.132,77.846 205.685,76.074 "/>
<polygon fill="#DAB163" points="207.233,76.074 207.703,77.846 207.211,77.846 206.763,76.074 "/>
<polygon fill="#DAB163" points="208.312,76.074 208.76,77.846 208.286,77.846 207.84,76.074 "/>
<polygon fill="#DAB163" points="209.388,76.074 209.837,77.846 209.344,77.846 208.894,76.074 "/>
<path fill="#DAB163" d="M212.262,62.063c0-0.554,0.024-1.109,0.069-1.663l2.626,10.306c-0.314-0.463-0.6-0.933-0.854-1.413
	L212.262,62.063z"/>
<path fill="#DAB163" d="M212.532,58.876c0.059-0.347,0.135-0.683,0.226-1.012l3.77,14.843c-0.239-0.27-0.465-0.533-0.674-0.787
	L212.532,58.876z"/>
<path fill="#DAB163" d="M213.07,56.787c0.073-0.27,0.165-0.53,0.271-0.785l4.602,18.05c-0.209-0.179-0.418-0.365-0.627-0.56
	L213.07,56.787z"/>
<path fill="#DAB163" d="M213.699,55.127c0.105-0.225,0.217-0.442,0.337-0.653l1.01,3.976c-0.03,0.688-0.013,1.385,0.046,2.088
	L213.699,55.127z"/>
<path fill="#DAB163" d="M214.419,53.734c0.119-0.181,0.239-0.365,0.359-0.56l0.605,2.447c-0.075,0.374-0.136,0.746-0.179,1.12
	L214.419,53.734z"/>
<path fill="#DAB163" d="M215.944,53.601c-0.091,0.284-0.181,0.567-0.27,0.851l-0.475-1.905c0.105-0.163,0.226-0.33,0.36-0.495
	L215.944,53.601z"/>
<path fill="#EB4949" d="M237.003,54.069c-1.393-1.389-3.066-2.087-5.03-2.087c-1.974,0-3.658,0.698-5.049,2.087
	c-1.395,1.393-2.089,3.076-2.089,5.054c0,1.976,0.694,3.66,2.089,5.05c1.391,1.393,3.075,2.089,5.049,2.089
	c1.964,0,3.638-0.696,5.03-2.089l6.307,6.31c-1.211,1.212-2.587,2.206-4.13,2.985c-0.134,0.074-0.269,0.143-0.402,0.203h-0.024
	c-0.151,0.075-0.322,0.149-0.515,0.222c-0.15,0.062-0.301,0.121-0.449,0.181c-0.195,0.074-0.374,0.143-0.54,0.202
	c0.016,0,0.016,0,0,0c-0.135,0.046-0.277,0.097-0.428,0.158c-0.179,0.045-0.365,0.098-0.561,0.158
	c-0.148,0.046-0.29,0.082-0.424,0.111h-0.023c-0.166,0.046-0.352,0.091-0.562,0.135c-0.15,0.029-0.299,0.059-0.449,0.09
	c-0.193,0.031-0.383,0.062-0.561,0.092h-0.022c-0.135,0.016-0.285,0.031-0.449,0.044c-0.196,0.031-0.389,0.053-0.584,0.068
	c-0.162,0.014-0.32,0.022-0.471,0.022c-0.255,0.015-0.505,0.021-0.743,0.021h-0.312c-0.197-0.013-0.396-0.021-0.605-0.021
	c-0.167-0.018-0.329-0.031-0.494-0.045c-0.211-0.015-0.406-0.037-0.585-0.067h-0.023c-0.15-0.016-0.314-0.035-0.493-0.068
	c-0.212-0.032-0.411-0.068-0.605-0.111c-0.045,0-0.114-0.007-0.204-0.022c-0.104-0.032-0.211-0.051-0.314-0.065v-0.025
	c-0.225-0.044-0.436-0.097-0.628-0.157h-0.025c-0.015,0-0.03,0-0.042,0c-0.151-0.042-0.298-0.091-0.449-0.134
	c-0.223-0.076-0.441-0.152-0.65-0.224c-0.179-0.06-0.352-0.128-0.519-0.203c-0.224-0.09-0.447-0.181-0.672-0.27
	c-0.091-0.045-0.173-0.091-0.246-0.136c0.015,0.017-0.015,0.007-0.09-0.024c-0.105-0.06-0.175-0.096-0.204-0.109
	c-0.238-0.104-0.465-0.225-0.672-0.359c-0.016,0-0.031-0.009-0.045-0.022l-0.044-0.023c-0.165-0.092-0.324-0.179-0.474-0.271h-0.022
	v-0.022c-0.24-0.133-0.472-0.285-0.695-0.448c-0.09-0.061-0.187-0.13-0.293-0.205h-0.022c-0.09-0.074-0.179-0.149-0.271-0.224
	c-0.269-0.193-0.516-0.395-0.737-0.606c-0.224-0.178-0.433-0.364-0.628-0.56c-0.104-0.092-0.203-0.18-0.293-0.271
	c-3.127-3.128-4.692-6.916-4.692-11.357c0-4.435,1.565-8.211,4.692-11.339c0-0.016,0.043-0.061,0.135-0.135l-0.135,0.135
	c3.129-3.144,6.917-4.715,11.359-4.715c4.432,0,8.21,1.571,11.338,4.715L237.003,54.069z"/>
<path fill="#DAB163" d="M216.595,51.982c-0.104,0.21-0.201,0.443-0.292,0.698l-0.313-1.192c0.134-0.149,0.263-0.29,0.382-0.425
	L216.595,51.982z"/>
<path fill="#DAB163" d="M216.482,66.014c0.288,0.63,0.602,1.237,0.943,1.82l1.842,7.229c-0.195-0.136-0.39-0.276-0.583-0.426
	L216.482,66.014z"/>
<path fill="#DAB163" d="M217.315,50.59c-0.12,0.211-0.227,0.414-0.313,0.608l-0.159-0.628c0.09-0.104,0.128-0.145,0.111-0.111
	c0.075-0.076,0.163-0.164,0.271-0.27L217.315,50.59z"/>
<path fill="#DAB163" d="M217.694,49.76c0.105-0.089,0.227-0.194,0.36-0.312c-0.104,0.135-0.209,0.291-0.313,0.47L217.694,49.76z"/>
<path fill="#DAB163" d="M218.369,69.249c0.238,0.313,0.479,0.612,0.72,0.899l1.459,5.703c-0.181-0.107-0.374-0.221-0.583-0.342
	L218.369,69.249z"/>
<path fill="#DAB163" d="M219.985,71.111c0.164,0.164,0.346,0.337,0.54,0.516l1.234,4.827c-0.193-0.089-0.374-0.173-0.539-0.247
	l-1.324-5.187c0.016,0,0.03,0.017,0.046,0.046C219.957,71.081,219.972,71.096,219.985,71.111z"/>
<path fill="#DAB163" d="M221.286,72.278c0.195,0.164,0.398,0.322,0.607,0.472l1.055,4.178c-0.164-0.061-0.344-0.129-0.539-0.204
	L221.286,72.278z"/>
<path fill="#DAB163" d="M222.614,73.244c0.163,0.119,0.349,0.248,0.56,0.382l0.943,3.66c-0.15-0.03-0.321-0.074-0.517-0.136
	L222.614,73.244z"/>
<path fill="#DAB163" d="M223.871,74.008c0.208,0.119,0.395,0.218,0.56,0.292l0.83,3.254c-0.164-0.029-0.337-0.065-0.515-0.11
	L223.871,74.008z"/>
<path fill="#EB4949" d="M225.039,73.602c0.091,0.047,0.11,0.054,0.066,0.024C225.149,73.655,225.127,73.651,225.039,73.602z"/>
<path fill="#DAB163" d="M225.576,74.813c-0.033,0-0.006,0.01,0.068,0.024l0.719,2.898c-0.15-0.016-0.317-0.039-0.494-0.069
	l-0.787-3.052C225.277,74.688,225.439,74.755,225.576,74.813z"/>
<path fill="#DAB163" d="M226.271,75.087c0.181,0.056,0.359,0.115,0.539,0.176l0.652,2.562c-0.15-0.017-0.314-0.031-0.493-0.044
	L226.271,75.087z"/>
<path fill="#DAB163" d="M227.438,75.445c0.181,0.059,0.352,0.104,0.516,0.137l0.586,2.264h-0.223c-0.046,0-0.137,0-0.271,0
	L227.438,75.445z"/>
<path fill="#DAB163" d="M227.55,54.722v-0.024c0.104-0.102,0.226-0.209,0.357-0.313l0.094,0.291
	C227.864,54.676,227.717,54.691,227.55,54.722z"/>
<path fill="#DAB163" d="M228.403,54.004c0.137-0.104,0.278-0.194,0.429-0.27l0.246,0.987c-0.164-0.03-0.331-0.046-0.493-0.046
	L228.403,54.004z"/>
<path fill="#DAB163" d="M229.595,77.802c-0.181,0.016-0.34,0.024-0.474,0.024l-0.537-2.088c0.193,0.031,0.363,0.061,0.515,0.092
	L229.595,77.802z"/>
<path fill="#DAB163" d="M229.35,53.464c0.133-0.075,0.273-0.134,0.424-0.179l0.427,1.638c-0.195-0.041-0.365-0.08-0.517-0.109
	L229.35,53.464z"/>
<path fill="#DAB163" d="M230.627,77.667c-0.134,0.03-0.284,0.054-0.447,0.069l-0.476-1.82c0.167,0.014,0.331,0.029,0.496,0.044
	L230.627,77.667z"/>
<path fill="#DAB163" d="M230.312,53.105c0.166-0.045,0.32-0.084,0.474-0.11l0.583,2.357c-0.162-0.076-0.344-0.15-0.539-0.226
	L230.312,53.105z"/>
<path fill="#DAB163" d="M231.66,77.488c-0.149,0.032-0.308,0.06-0.473,0.092l-0.38-1.552c0.149,0,0.313,0.006,0.494,0.023
	L231.66,77.488z"/>
<path fill="#DAB163" d="M232.647,56.137c-0.193-0.15-0.388-0.285-0.583-0.405l-0.718-2.805c0.135-0.015,0.29-0.029,0.472-0.046
	L232.647,56.137z"/>
<path fill="#DAB163" d="M232.67,77.238c-0.165,0.046-0.313,0.093-0.449,0.134l-0.335-1.299h0.087c0.122,0,0.248-0.008,0.384-0.024
	L232.67,77.238z"/>
<path fill="#DAB163" d="M233.39,56.722l-0.99-3.815c0.179,0.015,0.346,0.028,0.494,0.042l0.876,3.391L233.39,56.722z"/>
<path fill="#DAB163" d="M233.66,76.925c-0.151,0.061-0.299,0.114-0.45,0.157l-0.27-1.054c0.164,0,0.32-0.009,0.471-0.023
	L233.66,76.925z"/>
<path fill="#DAB163" d="M234.243,55.868l-0.72-2.785c0.181,0.046,0.35,0.098,0.516,0.156l0.584,2.248L234.243,55.868z"/>
<path fill="#DAB163" d="M234.623,76.567c-0.135,0.045-0.276,0.097-0.424,0.156l-0.204-0.786c0.15-0.014,0.308-0.037,0.474-0.066
	L234.623,76.567z"/>
<path fill="#DAB163" d="M234.713,53.51c0.18,0.091,0.365,0.195,0.561,0.315l0.203,0.808l-0.382,0.379L234.713,53.51z"/>
<path fill="#DAB163" d="M235.588,76.119c-0.15,0.074-0.29,0.141-0.426,0.2l-0.135-0.539c0.15-0.03,0.299-0.06,0.449-0.09
	L235.588,76.119z"/>
<path fill="#DAB163" d="M236.533,75.603c-0.15,0.073-0.293,0.148-0.427,0.225l-0.068-0.249c0.136-0.042,0.286-0.092,0.451-0.137
	L236.533,75.603z"/>
<polygon fill="#DAB163" points="244.946,45.741 245.529,48.008 244.676,46.505 244.473,45.741 "/>
<polygon fill="#DAB163" points="246.021,45.741 247.46,51.333 246.582,49.827 245.552,45.741 "/>
<polygon fill="#DAB163" points="248.493,53.151 246.607,45.741 247.101,45.741 249.369,54.655 "/>
<polygon fill="#DAB163" points="250.424,56.495 247.685,45.741 248.178,45.741 251.277,57.999 "/>
<polygon fill="#EB4949" points="277.701,43.07 267.24,61.207 267.24,75.175 258.326,75.175 258.326,61.207 258.033,60.693 
	256.755,58.47 255.901,56.966 250.58,47.764 251.008,48.48 250.289,47.247 247.887,43.07 258.169,43.07 262.793,51.061 
	267.397,43.07 "/>
<polygon fill="#DAB163" points="252.33,59.817 249.032,46.84 249.905,48.347 253.208,61.323 "/>
<polygon fill="#DAB163" points="257.43,75.646 254.666,64.779 254.666,63.881 254.263,63.164 250.963,50.189 251.815,51.693 
	257.43,73.762 "/>
<polygon fill="#DAB163" points="257.43,71.448 252.871,53.51 253.747,55.016 257.43,69.562 "/>
<polygon fill="#DAB163" points="254.666,67.091 257.405,77.846 256.936,77.846 254.666,69 "/>
<polygon fill="#DAB163" points="254.666,71.311 256.328,77.846 255.857,77.846 254.666,73.199 "/>
<polygon fill="#DAB163" points="254.666,75.51 255.271,77.846 254.779,77.846 254.666,77.397 "/>
<polygon fill="#DAB163" points="257.43,67.251 254.803,56.832 255.652,58.336 257.43,65.342 "/>
<polygon fill="#DAB163" points="257.43,63.027 256.711,60.18 257.43,61.434 "/>
<polygon fill="#DAB163" points="258.033,76.074 258.484,77.846 257.991,77.846 257.541,76.074 "/>
<polygon fill="#DAB163" points="259.09,76.074 259.539,77.846 259.067,77.846 258.618,76.074 "/>
<polygon fill="#DAB163" points="260.168,76.074 260.616,77.846 260.146,77.846 259.674,76.074 "/>
<polygon fill="#DAB163" points="261.245,76.074 261.694,77.846 261.2,77.846 260.751,76.074 "/>
<polygon fill="#DAB163" points="262.3,76.074 262.749,77.846 262.277,77.846 261.828,76.074 "/>
<polygon fill="#DAB163" points="262.793,49.288 262.277,48.391 262.255,48.322 262.593,47.738 262.928,49.042 "/>
<polygon fill="#DAB163" points="263.377,76.074 263.603,76.904 263.603,77.846 263.356,77.846 262.883,76.074 "/>
<polygon fill="#DAB163" points="263.67,47.764 263.334,48.347 262.996,47.044 263.334,46.462 "/>
<polygon fill="#DAB163" points="264.411,46.483 264.073,47.067 263.738,45.741 264.23,45.741 "/>
<polygon fill="#EB4949" points="264.838,45.741 264.815,45.763 264.815,45.741 "/>
</svg>
