<?xml version="1.0" encoding="utf-8"?>
<!-- Generator: Adobe Illustrator 16.0.0, SVG Export Plug-In . SVG Version: 6.00 Build 0)  -->
<!DOCTYPE svg PUBLIC "-//W3C//DTD SVG 1.1//EN" "http://www.w3.org/Graphics/SVG/1.1/DTD/svg11.dtd">
<svg version="1.1" id="Layer_1" xmlns="http://www.w3.org/2000/svg" xmlns:xlink="http://www.w3.org/1999/xlink" x="0px" y="0px"
	 width="41px" height="41px" viewBox="0 0 41 41" enable-background="new 0 0 41 41" xml:space="preserve">
<path opacity="0.06" d="M7,17V0h27v17H7z M28,11V6H13v5H28z"/>
<path opacity="0.06" d="M4.312,41C1.935,41,0,39.544,0,37.166V23.291C0,19.638,2.972,17,6.625,17H9v2h23v-2h2.375
	C38.028,17,41,19.638,41,23.291v13.875C41,39.544,39.065,41,36.688,41H4.312z M11,34.854C11,35.025,11.078,35,11.25,35h18.5
	c0.172,0,0.25,0.025,0.25-0.146V35H11V34.854z"/>
<rect x="13" y="6" opacity="0.06" width="15" height="5"/>
<g>
	<g>
		<path fill="#FFFFFF" d="M32.062,2.478H8.938v16.188h23.125V2.478z M29.75,16.353h-18.5V4.791h18.5V16.353z"/>
		<path fill="#FFFFFF" d="M34.375,18.666v2.313H6.625v-2.313C4.071,18.666,2,20.736,2,23.291v13.875
			c0,1.277,1.034,2.312,2.312,2.312h32.375c1.278,0,2.312-1.035,2.312-2.312V23.291C39,20.736,36.929,18.666,34.375,18.666z
			 M32.062,34.854c0,1.277-1.034,2.312-2.312,2.312h-18.5c-1.278,0-2.312-1.035-2.312-2.312v-2.312h23.125V34.854z M35.531,27.916
			h-2.312c-0.639,0-1.156-0.518-1.156-1.156c0-0.64,0.518-1.156,1.156-1.156h2.312c0.639,0,1.156,0.517,1.156,1.156
			C36.688,27.398,36.17,27.916,35.531,27.916z"/>
		<rect x="13.562" y="7.103" fill="#FFFFFF" width="13.875" height="2.312"/>
		<rect x="13.562" y="11.728" fill="#FFFFFF" width="13.875" height="2.312"/>
	</g>
</g>
</svg>
