<?xml version="1.0" encoding="utf-8"?>
<!-- Generator: Adobe Illustrator 16.0.0, SVG Export Plug-In . SVG Version: 6.00 Build 0)  -->
<!DOCTYPE svg PUBLIC "-//W3C//DTD SVG 1.1//EN" "http://www.w3.org/Graphics/SVG/1.1/DTD/svg11.dtd">
<svg version="1.1" id="Layer_1" xmlns="http://www.w3.org/2000/svg" xmlns:xlink="http://www.w3.org/1999/xlink" x="0px" y="0px"
	 width="20px" height="21.561px" viewBox="0 0 20 21.561" enable-background="new 0 0 20 21.561" xml:space="preserve">
<path fill="#F7CE13" d="M16.389,7.223C18.38,7.223,20,5.603,20,3.611S18.38,0,16.389,0c-1.992,0-3.611,1.62-3.611,3.612
	c0,0.375,0.057,0.737,0.164,1.077L5.443,9.263C4.866,8.768,4.118,8.468,3.3,8.468C1.48,8.468,0,9.948,0,11.768
	c0,1.818,1.48,3.299,3.299,3.299c0.647,0,1.251-0.188,1.761-0.512l6.048,3.461c-0.035,0.182-0.054,0.369-0.054,0.561
	c0,1.645,1.339,2.984,2.983,2.984c1.646,0,2.985-1.34,2.985-2.984c0-1.646-1.339-2.984-2.985-2.984
	c-0.811,0-1.546,0.326-2.084,0.852l-5.681-3.25c0.208-0.432,0.325-0.916,0.325-1.426c0-0.355-0.058-0.699-0.163-1.021l7.443-4.542
	C14.529,6.834,15.414,7.223,16.389,7.223z"/>
</svg>
