<?xml version="1.0" encoding="utf-8"?>
<!-- Generator: Adobe Illustrator 16.0.0, SVG Export Plug-In . SVG Version: 6.00 Build 0)  -->
<!DOCTYPE svg PUBLIC "-//W3C//DTD SVG 1.1//EN" "http://www.w3.org/Graphics/SVG/1.1/DTD/svg11.dtd">
<svg version="1.1" id="Layer_1" xmlns="http://www.w3.org/2000/svg" xmlns:xlink="http://www.w3.org/1999/xlink" x="0px" y="0px"
	 width="20px" height="20px" viewBox="0 0 20 20" enable-background="new 0 0 20 20" xml:space="preserve">
<g>
	<g>
		<path fill="#F7CE13" d="M20,3.299c-0.736,0.326-1.526,0.547-2.355,0.646c0.847-0.507,1.495-1.312,1.803-2.268
			c-0.795,0.47-1.672,0.811-2.606,0.996c-0.749-0.799-1.813-1.296-2.995-1.296c-2.266,0-4.103,1.837-4.103,4.102
			c0,0.321,0.036,0.635,0.106,0.935C6.44,6.243,3.417,4.609,1.394,2.127C1.04,2.732,0.838,3.437,0.838,4.189
			c0,1.424,0.725,2.68,1.825,3.415C1.991,7.581,1.358,7.396,0.805,7.088V7.14c0,1.987,1.415,3.646,3.291,4.023
			c-0.344,0.092-0.706,0.144-1.081,0.144c-0.265,0-0.521-0.026-0.772-0.076c0.522,1.631,2.037,2.817,3.832,2.85
			c-1.403,1.1-3.173,1.753-5.095,1.753c-0.331,0-0.657-0.02-0.979-0.056c1.816,1.166,3.972,1.846,6.289,1.846
			c7.547,0,11.673-6.251,11.673-11.673l-0.014-0.531C18.754,4.844,19.451,4.122,20,3.299z"/>
	</g>
</g>
</svg>
